<svg width="106" height="54" viewBox="0 0 106 54" fill="none" xmlns="http://www.w3.org/2000/svg">
<path d="M89.3123 43.1991C87.4506 43.1991 85.7522 42.8725 84.2172 42.2193C82.7148 41.5334 81.5063 40.4882 80.5918 39.0838C79.7099 37.6467 79.269 35.8014 79.269 33.5478C79.269 31.5554 79.6283 29.6284 80.3468 27.7668C81.098 25.8724 82.1432 24.174 83.4823 22.6716C84.8214 21.1692 86.4054 19.9771 88.2345 19.0952C90.0635 18.2134 92.0558 17.7725 94.2115 17.7725C96.1058 17.7725 97.7879 18.1154 99.2576 18.8013C100.76 19.4545 101.952 20.4833 102.834 21.8878C103.716 23.2922 104.157 25.1375 104.157 27.4238C104.157 29.4161 103.781 31.3595 103.03 33.2538C102.311 35.1482 101.283 36.8465 99.9435 38.3489C98.637 39.8187 97.0693 40.9945 95.2403 41.8763C93.4439 42.7582 91.4679 43.1991 89.3123 43.1991ZM89.9002 40.2596C90.782 40.2596 91.5823 39.8024 92.3008 38.8879C93.0193 37.9733 93.6399 36.7649 94.1625 35.2625C94.685 33.7601 95.0933 32.127 95.3873 30.3633C95.6812 28.5669 95.8282 26.8032 95.8282 25.0722C95.8282 23.3412 95.6159 22.1817 95.1913 21.5938C94.7667 21.0059 94.2115 20.712 93.5256 20.712C92.6438 20.712 91.8272 21.1855 91.076 22.1327C90.3575 23.0472 89.7369 24.2557 89.2143 25.7581C88.6918 27.2605 88.2835 28.8772 87.9895 30.6083C87.7282 32.3393 87.5976 34.005 87.5976 35.6054C87.5976 37.4998 87.8262 38.7572 88.2835 39.3778C88.7408 39.9657 89.2796 40.2596 89.9002 40.2596Z" fill="white"/>
<path d="M66.1672 32.9109C66.6245 32.9109 67.0654 32.7313 67.49 32.372C67.9473 32.0127 68.3229 31.3432 68.6168 30.3633C68.9108 29.3508 69.0577 27.9137 69.0577 26.0521C69.0577 24.1577 68.8291 22.688 68.3719 21.6428C67.9473 20.5977 67.3267 20.0751 66.5102 20.0751C65.5957 20.0751 64.8771 20.6793 64.3545 21.8878C63.8646 23.0962 63.6197 24.7293 63.6197 26.7869C63.6197 27.7341 63.685 28.6813 63.8156 29.6285C63.9789 30.5756 64.2402 31.3595 64.5995 31.9801C64.9914 32.6006 65.514 32.9109 66.1672 32.9109ZM56.173 27.9138C56.173 26.1174 56.6629 24.4517 57.6427 22.9166C58.6225 21.3815 59.9453 20.1404 61.611 19.1932C63.2767 18.2461 65.1384 17.7725 67.1961 17.7725C69.1884 17.7725 70.8214 18.2297 72.0952 19.1442C73.369 20.0261 74.2182 21.0549 74.6428 22.2307C75.198 19.9771 75.9003 18.4257 76.7494 17.5765C77.6313 16.7273 78.6764 16.3027 79.8849 16.3027C80.8321 16.3027 81.6322 16.515 82.2855 16.9396C82.3834 17.1029 82.4651 17.2989 82.5304 17.5275C82.5958 17.7235 82.6284 18.0011 82.6284 18.3604C82.6284 19.9608 82.1222 21.1529 81.1097 21.9368C80.0972 22.688 78.5295 23.2922 76.4065 23.7495C76.3085 24.0761 76.2105 24.419 76.1125 24.7783C76.0472 25.1376 75.9656 25.4968 75.8676 25.8561C75.4103 27.6525 74.7571 29.2529 73.9079 30.6573C73.0914 32.0617 71.9156 33.1559 70.3805 33.9397C68.8781 34.7236 66.8694 35.1155 64.3545 35.1155C63.7013 35.1155 63.0808 35.0665 62.4929 34.9685C61.9376 34.8379 61.415 34.6909 60.9251 34.5276C60.5985 34.8216 60.4025 35.0665 60.3372 35.2625C60.2719 35.4585 60.2393 35.6708 60.2393 35.8994C60.2393 36.2913 60.3862 36.6669 60.6802 37.0262C60.9741 37.3855 61.5783 37.5978 62.4929 37.6631L69.8906 38.251C71.8176 38.3816 73.32 38.7409 74.3978 39.3288C75.4756 39.884 76.2268 40.6026 76.6514 41.4844C77.1087 42.3663 77.3373 43.3461 77.3373 44.4239C77.3373 46.2203 76.6025 47.8207 75.1327 49.2251C73.663 50.6295 71.6543 51.74 69.1067 52.5565C66.5918 53.3731 63.734 53.7813 60.5332 53.7813C57.3978 53.7813 54.9971 53.3567 53.3314 52.5075C51.6984 51.691 50.8819 50.4989 50.8819 48.9312C50.8819 47.7554 51.4207 46.7265 52.4986 45.8447C53.5764 44.9955 54.8175 44.2606 56.2219 43.6401C55.5687 43.2808 55.0298 42.8072 54.6052 42.2193C54.1806 41.6314 53.9683 40.9292 53.9683 40.1127C53.9683 38.6756 54.4256 37.4671 55.3401 36.4873C56.2546 35.4748 57.512 34.495 59.1124 33.5478C58.1326 32.8292 57.3977 31.9637 56.9078 30.9512C56.4179 29.9387 56.173 28.9262 56.173 27.9138ZM57.1038 47.1675C57.1038 48.2779 57.659 49.1435 58.7695 49.764C59.9127 50.3846 61.4804 50.6949 63.4727 50.6949C65.5957 50.6949 67.2124 50.4172 68.3228 49.862C69.466 49.3068 70.0376 48.5229 70.0376 47.5104C70.0376 45.9427 68.6658 45.0445 65.9223 44.8159L58.3286 44.13C57.9693 44.5546 57.6754 45.0118 57.4467 45.5017C57.2181 46.0243 57.1038 46.5796 57.1038 47.1675Z" fill="white"/>
<path d="M39.0745 43.1991C37.2128 43.1991 35.5145 42.8725 33.9794 42.2193C32.477 41.5334 31.2685 40.4882 30.354 39.0838C29.4722 37.6467 29.0312 35.8014 29.0312 33.5478C29.0312 31.5554 29.3905 29.6284 30.109 27.7668C30.8602 25.8724 31.9054 24.174 33.2445 22.6716C34.5836 21.1692 36.1677 19.9771 37.9967 19.0952C39.8257 18.2134 41.8181 17.7725 43.9737 17.7725C45.868 17.7725 47.5501 18.1154 49.0198 18.8013C50.5222 19.4545 51.7144 20.4833 52.5962 21.8878C53.4781 23.2922 53.919 25.1375 53.919 27.4238C53.919 29.4161 53.5434 31.3595 52.7922 33.2538C52.0736 35.1482 51.0448 36.8465 49.7057 38.3489C48.3993 39.8187 46.8315 40.9945 45.0025 41.8763C43.2061 42.7582 41.2302 43.1991 39.0745 43.1991ZM39.6624 40.2596C40.5443 40.2596 41.3445 39.8024 42.063 38.8879C42.7816 37.9733 43.4021 36.7649 43.9247 35.2625C44.4473 33.7601 44.8555 32.127 45.1495 30.3633C45.4434 28.5669 45.5904 26.8032 45.5904 25.0722C45.5904 23.3412 45.3781 22.1817 44.9535 21.5938C44.5289 21.0059 43.9737 20.712 43.2878 20.712C42.406 20.712 41.5894 21.1855 40.8382 22.1327C40.1197 23.0472 39.4991 24.2557 38.9766 25.7581C38.454 27.2605 38.0457 28.8772 37.7518 30.6083C37.4905 32.3393 37.3598 34.005 37.3598 35.6054C37.3598 37.4998 37.5885 38.7572 38.0457 39.3778C38.503 39.9657 39.0419 40.2596 39.6624 40.2596Z" fill="white"/>
<path d="M5.48708 13.3632L6.07497 10.4727H22.4871L21.8993 13.3632L17.735 13.7551L15.1874 27.1788C14.7955 29.2364 14.4035 31.2941 14.0116 33.3517C13.6523 35.4094 13.2931 37.4507 12.9338 39.4757H20.3315L22.9281 32.6659H27.0434L24.7408 42.4152H0L0.587884 39.5247L4.31127 39.1328L6.85884 25.6601C7.25077 23.6677 7.62635 21.6917 7.98562 19.7321C8.34489 17.7397 8.68786 15.7474 9.01448 13.7551L5.48708 13.3632Z" fill="white"/>
<path d="M96.237 13.0451C96.3004 12.7598 96.4325 12.5379 96.6332 12.3794C96.834 12.2315 97.077 12.1575 97.3623 12.1575C97.6476 12.1575 97.8907 12.2315 98.0915 12.3794C98.3028 12.5379 98.5247 12.781 98.7572 13.1085C99.0319 12.9078 99.2961 12.6964 99.5497 12.4745C99.8033 12.2632 100.046 12.0307 100.279 11.7771C100.289 11.7666 100.295 11.756 100.295 11.7454C100.305 11.7454 100.311 11.7454 100.311 11.7454C100.152 10.6782 99.9882 9.63734 99.8191 8.62292C99.6501 7.60851 99.4757 6.54654 99.2961 5.43703C99.2432 5.00379 99.1851 4.73962 99.1217 4.64452C99.0689 4.53885 98.9844 4.48601 98.8681 4.48601C98.7836 4.48601 98.6779 4.52828 98.5511 4.61281C98.4349 4.69735 98.2975 4.84 98.139 5.04077L97.7745 4.61281C98.6304 3.4082 99.4387 2.80589 100.2 2.80589C100.601 2.80589 100.892 2.94326 101.071 3.218C101.251 3.48217 101.378 3.94182 101.452 4.59696C101.557 5.49514 101.652 6.37219 101.737 7.2281C101.832 8.08402 101.917 8.92936 101.991 9.76414C102.318 8.93993 102.598 8.15798 102.831 7.41831C103.074 6.66806 103.296 5.8914 103.496 5.08832C103.655 4.49658 103.798 4.03692 103.924 3.70935C104.062 3.37121 104.22 3.13346 104.4 2.99609C104.579 2.85872 104.801 2.79004 105.066 2.79004C105.309 2.79004 105.525 2.86401 105.715 3.01194C105.906 3.15988 106.001 3.37121 106.001 3.64595C106.001 3.92069 105.943 4.19014 105.826 4.45431C105.721 4.70792 105.578 5.00379 105.398 5.34193C105.229 5.64836 105.039 5.9865 104.828 6.35634C104.627 6.71561 104.389 7.1013 104.115 7.51341C103.819 7.96778 103.507 8.45914 103.179 8.98748C102.852 9.50525 102.461 10.06 102.006 10.6518C101.763 10.9899 101.494 11.3386 101.198 11.6979C100.913 12.0571 100.564 12.4587 100.152 12.9025C99.7504 13.3252 99.3383 13.6633 98.9157 13.9169C98.5036 14.1811 98.0703 14.3132 97.6159 14.3132C97.2355 14.3132 96.9132 14.2022 96.6491 13.9803C96.3849 13.769 96.2475 13.4572 96.237 13.0451Z" fill="white"/>
<path d="M91.4157 10.7152L89.3552 10.842L89.1333 10.6518L90.433 4.45431L89.3235 4.27996L89.4344 3.6935L92.6679 2.79004L92.969 3.04364L92.6837 4.50186C93.2332 3.97352 93.7827 3.56142 94.3322 3.26555C94.8817 2.95911 95.41 2.80589 95.9172 2.80589C96.2554 2.80589 96.5407 2.91684 96.7731 3.13874C97.0056 3.36065 97.1218 3.6935 97.1218 4.13731C97.1218 4.34864 97.1007 4.57055 97.0584 4.80302C97.0267 5.03549 96.9792 5.27324 96.9158 5.51628L96.1708 8.51197C96.1286 8.65991 96.0916 8.79199 96.0599 8.90823C96.0387 9.0139 96.0282 9.109 96.0282 9.19353C96.0282 9.40487 96.1127 9.51054 96.2818 9.51054C96.5565 9.51054 96.9475 9.18297 97.4547 8.52782L97.9302 8.84483C97.7294 9.19353 97.4758 9.53167 97.1694 9.85924C96.8629 10.1762 96.5142 10.4404 96.1232 10.6518C95.7428 10.8525 95.3255 10.9529 94.8711 10.9529C94.4907 10.9529 94.1948 10.8684 93.9835 10.6993C93.7827 10.5197 93.6823 10.2713 93.6823 9.95434C93.6823 9.71131 93.7088 9.46299 93.7616 9.20938C93.825 8.95578 93.8884 8.71274 93.9518 8.48027L94.5383 6.10274C94.6017 5.8597 94.6492 5.6378 94.6809 5.43703C94.7232 5.22569 94.7443 5.05662 94.7443 4.92982C94.7443 4.75018 94.702 4.62338 94.6175 4.54941C94.5435 4.47545 94.4484 4.43846 94.3322 4.43846C94.0997 4.43846 93.825 4.51771 93.508 4.67622C93.2016 4.82415 92.8634 5.06719 92.4936 5.40533L92.0814 7.3232C91.9652 7.88325 91.8543 8.44857 91.7486 9.01918C91.6429 9.57922 91.532 10.1445 91.4157 10.7152Z" fill="white"/>
<path d="M82.646 7.92525C82.646 8.42189 82.7253 8.78116 82.8838 9.00307C83.0423 9.22497 83.2536 9.33592 83.5178 9.33592C83.7291 9.33592 83.9458 9.26724 84.1677 9.12987C84.4001 8.98193 84.6431 8.78645 84.8968 8.54341C84.9073 8.49058 84.9126 8.44302 84.9126 8.40076C84.9232 8.35849 84.9338 8.31622 84.9443 8.27396L85.8319 4.20045C85.5678 4.05251 85.293 3.97854 85.0077 3.97854C84.659 3.97854 84.2892 4.15818 83.8982 4.51745C83.6552 4.73935 83.4386 5.05108 83.2484 5.45261C83.0582 5.84359 82.9102 6.26098 82.8045 6.70478C82.6989 7.13802 82.646 7.54485 82.646 7.92525ZM86.1014 10.9526C85.7104 10.9526 85.3934 10.8364 85.1503 10.6039C84.9073 10.3609 84.7858 9.99635 84.7858 9.51027C84.7858 9.47857 84.7858 9.44687 84.7858 9.41517C84.7858 9.38347 84.7858 9.35705 84.7858 9.33592C84.3631 9.81143 83.9088 10.2024 83.4227 10.5088C82.9366 10.8047 82.4717 10.9526 82.0279 10.9526C81.732 10.9526 81.4573 10.8787 81.2037 10.7307C80.9501 10.5934 80.744 10.3662 80.5855 10.0492C80.427 9.72161 80.3478 9.28837 80.3478 8.74946C80.3478 8.17885 80.4534 7.61353 80.6648 7.05349C80.8867 6.48288 81.1825 5.94397 81.5524 5.43676C81.9328 4.92956 82.3554 4.48047 82.8204 4.08949C83.2853 3.68796 83.7661 3.37623 84.2627 3.15433C84.7594 2.92186 85.2402 2.80563 85.7051 2.80563C85.9482 2.80563 86.1753 2.85318 86.3867 2.94828C86.598 3.03281 86.7935 3.15433 86.9731 3.31283L88.1302 2.77393L88.3997 2.96413L87.1316 8.51171C87.0894 8.64908 87.0577 8.77588 87.0366 8.89211C87.0154 9.00835 87.0049 9.10873 87.0049 9.19327C87.0049 9.40461 87.1 9.51027 87.2902 9.51027C87.4381 9.51027 87.6019 9.42574 87.7815 9.25667C87.9717 9.07703 88.1883 8.82871 88.4314 8.51171L88.9227 8.84456C88.7325 9.17213 88.4895 9.49971 88.1936 9.82728C87.9083 10.1548 87.586 10.4243 87.2267 10.6356C86.878 10.847 86.5029 10.9526 86.1014 10.9526Z" fill="white"/>
<path d="M70.5501 14.3132L70.6768 13.695L71.6279 13.5365L73.5299 4.45431L72.4204 4.27996L72.5155 3.6935L75.7489 2.79004L76.0501 3.04364L75.7806 4.40676C76.2033 3.91012 76.6682 3.51915 77.1754 3.23384C77.6827 2.94854 78.1581 2.80589 78.602 2.80589C79.0563 2.80589 79.442 2.96439 79.759 3.2814C80.0866 3.58783 80.2504 4.15844 80.2504 4.99322C80.2504 5.7329 80.0972 6.45673 79.7907 7.1647C79.4949 7.87268 79.0933 8.51197 78.5861 9.08258C78.0895 9.65319 77.5347 10.1076 76.9218 10.4457C76.3195 10.7838 75.7172 10.9529 75.1149 10.9529C74.8613 10.9529 74.6288 10.9159 74.4175 10.842C74.3118 11.3597 74.2167 11.8352 74.1322 12.2685C74.0582 12.7017 73.9843 13.1191 73.9103 13.5206L75.0673 13.695L74.9406 14.3132H70.5501ZM77.0803 4.43846C76.8479 4.43846 76.6048 4.51243 76.3512 4.66037C76.0976 4.8083 75.8493 4.99322 75.6063 5.21512L74.7504 9.41543C75.0251 9.65847 75.3104 9.77999 75.6063 9.77999C75.9127 9.77999 76.1874 9.69546 76.4305 9.52639C76.6841 9.34675 76.9324 9.06145 77.1754 8.67047C77.4079 8.30064 77.5981 7.84098 77.746 7.2915C77.9045 6.74203 77.9838 6.22954 77.9838 5.75403C77.9838 5.28909 77.9099 4.95624 77.7619 4.75547C77.614 4.54413 77.3868 4.43846 77.0803 4.43846Z" fill="white"/>
<path d="M61.1458 10.7152L59.0853 10.842L58.8634 10.6518L60.1632 4.45431L59.0536 4.27996L59.1646 3.6935L62.398 2.79004L62.6992 3.04364L62.4297 4.43846C62.9581 3.93126 63.4917 3.535 64.0306 3.2497C64.5801 2.95383 65.0978 2.80589 65.5839 2.80589C65.9326 2.80589 66.2232 2.91684 66.4557 3.13874C66.6881 3.36065 66.8044 3.6935 66.8044 4.13731C66.8044 4.19014 66.8044 4.24826 66.8044 4.31166C66.8044 4.36449 66.7991 4.41733 66.7885 4.47016C67.3169 3.94182 67.8505 3.535 68.3894 3.2497C68.9389 2.95383 69.4567 2.80589 69.9427 2.80589C70.2809 2.80589 70.5662 2.91684 70.7986 3.13874C71.0311 3.36065 71.1473 3.6935 71.1473 4.13731C71.1473 4.34864 71.1262 4.57055 71.0839 4.80302C71.0522 5.03549 71.0047 5.27324 70.9413 5.51628L70.1963 8.51197C70.1541 8.65991 70.1171 8.79199 70.0854 8.90823C70.0642 9.0139 70.0537 9.109 70.0537 9.19353C70.0537 9.40487 70.1382 9.51054 70.3073 9.51054C70.5714 9.51054 70.9624 9.18297 71.4802 8.52782L71.9557 8.84483C71.7444 9.2041 71.4855 9.54752 71.179 9.87509C70.8832 10.1921 70.5398 10.451 70.1488 10.6518C69.7684 10.8525 69.3457 10.9529 68.8808 10.9529C68.5109 10.9529 68.2203 10.8684 68.009 10.6993C67.8082 10.5197 67.7079 10.2713 67.7079 9.95434C67.7079 9.71131 67.7343 9.46299 67.7871 9.20938C67.8505 8.95578 67.9139 8.71274 67.9773 8.48027L68.5638 6.10274C68.6272 5.8597 68.6747 5.6378 68.7064 5.43703C68.7487 5.22569 68.7698 5.05662 68.7698 4.92982C68.7698 4.75018 68.7275 4.62338 68.643 4.54941C68.569 4.47545 68.4739 4.43846 68.3577 4.43846C68.1358 4.43846 67.8769 4.51243 67.581 4.66037C67.2957 4.8083 66.9787 5.04077 66.63 5.35778L66.2179 7.3232C66.1017 7.88325 65.9855 8.44857 65.8692 9.01918C65.7636 9.57922 65.6579 10.1445 65.5522 10.7152L63.4917 10.842L63.2698 10.6518L64.2525 5.92838C64.3053 5.71705 64.3476 5.52684 64.3793 5.35778C64.411 5.17814 64.4268 5.02492 64.4268 4.89812C64.4268 4.73962 64.3846 4.62338 64.3001 4.54941C64.2261 4.47545 64.131 4.43846 64.0147 4.43846C63.7823 4.43846 63.5181 4.51243 63.2222 4.66037C62.9264 4.8083 62.5988 5.03549 62.2395 5.34193L61.8116 7.3232C61.6953 7.88325 61.5844 8.44857 61.4787 9.01918C61.373 9.57922 61.2621 10.1445 61.1458 10.7152Z" fill="white"/>
<path d="M53.7403 10.9532C53.1697 10.9532 52.6519 10.8475 52.187 10.6362C51.722 10.4143 51.3522 10.0814 51.0775 9.6376C50.8027 9.18323 50.6653 8.61262 50.6653 7.92578C50.6653 7.26007 50.7816 6.62606 51.0141 6.02375C51.2465 5.41087 51.5688 4.8614 51.9809 4.37533C52.4036 3.88925 52.8949 3.50885 53.455 3.23411C54.015 2.9488 54.6279 2.80615 55.2936 2.80615C55.8748 2.80615 56.3926 2.9171 56.8469 3.13901C57.3013 3.35034 57.6606 3.67791 57.9247 4.12172C58.1995 4.56553 58.3369 5.13614 58.3369 5.83355C58.3369 6.49926 58.2206 7.13855 57.9882 7.75142C57.7557 8.35373 57.4334 8.89792 57.0213 9.384C56.6092 9.87007 56.1231 10.2558 55.563 10.5411C55.003 10.8158 54.3954 10.9532 53.7403 10.9532ZM53.9305 10.0973C54.2369 10.0973 54.5169 9.95989 54.7706 9.68515C55.0347 9.39985 55.2619 9.02473 55.4521 8.55979C55.6423 8.09485 55.785 7.58236 55.8801 7.02231C55.9857 6.46227 56.0386 5.90751 56.0386 5.35804C56.0386 4.71346 55.9487 4.27494 55.7691 4.04247C55.6 3.79943 55.3729 3.67791 55.0876 3.67791C54.7706 3.67791 54.48 3.82057 54.2158 4.10587C53.9622 4.38061 53.7403 4.75045 53.5501 5.21539C53.3599 5.66976 53.2119 6.17168 53.1063 6.72116C53.0112 7.27063 52.9636 7.81483 52.9636 8.35373C52.9636 9.03001 53.0535 9.48967 53.2331 9.7327C53.4233 9.97574 53.6557 10.0973 53.9305 10.0973Z" fill="white"/>
<path d="M46.2028 11.0159C45.2623 11.0159 44.4328 10.8416 43.7143 10.4929C42.9957 10.1336 42.4357 9.61052 42.0342 8.92368C41.6326 8.22627 41.4319 7.37564 41.4319 6.37179C41.4319 5.49475 41.5798 4.67053 41.8757 3.89916C42.1715 3.12778 42.5942 2.4515 43.1437 1.87033C43.6932 1.27859 44.3483 0.81893 45.1091 0.491358C45.8805 0.163786 46.7311 0 47.661 0C48.2316 0 48.7547 0.0686851 49.2302 0.206054C49.7162 0.332856 50.2182 0.538908 50.736 0.824213L50.3714 3.2493H49.1351L49.1034 1.25217C48.7229 1.03027 48.295 0.919314 47.8195 0.919314C47.2383 0.919314 46.71 1.07253 46.2345 1.37897C45.759 1.67484 45.3468 2.08166 44.9981 2.59944C44.66 3.11721 44.3959 3.71424 44.2056 4.39052C44.026 5.05622 43.9362 5.75892 43.9362 6.4986C43.9362 7.18544 44.0418 7.8036 44.2532 8.35307C44.4751 8.89198 44.7921 9.31994 45.2042 9.63694C45.6269 9.94338 46.1447 10.0966 46.7575 10.0966C46.9372 10.0966 47.1115 10.0807 47.2806 10.049C47.4497 10.0173 47.6187 9.97508 47.7878 9.92224L48.5803 7.78246H49.8008L49.3887 10.2234C48.9977 10.4453 48.5381 10.6302 48.0097 10.7782C47.492 10.9367 46.8896 11.0159 46.2028 11.0159Z" fill="white"/>
</svg>
