<svg width="106" height="54" viewBox="0 0 106 54" fill="none" xmlns="http://www.w3.org/2000/svg">
<path d="M89.3119 43.1989C87.4502 43.1989 85.7518 42.8723 84.2167 42.2191C82.7143 41.5332 81.5059 40.488 80.5914 39.0836C79.7095 37.6465 79.2686 35.8012 79.2686 33.5475C79.2686 31.5552 79.6278 29.6282 80.3464 27.7665C81.0976 25.8722 82.1428 24.1738 83.4819 22.6714C84.821 21.169 86.405 19.9768 88.234 19.095C90.0631 18.2131 92.0554 17.7722 94.211 17.7722C96.1054 17.7722 97.7875 18.1152 99.2572 18.801C100.76 19.4543 101.952 20.4831 102.834 21.8875C103.715 23.2919 104.156 25.1373 104.156 27.4236C104.156 29.4159 103.781 31.3592 103.03 33.2536C102.311 35.1479 101.282 36.8463 99.9431 38.3487C98.6366 39.8185 97.0689 40.9943 95.2398 41.8761C93.4435 42.758 91.4675 43.1989 89.3119 43.1989ZM89.8998 40.2594C90.7816 40.2594 91.5818 39.8021 92.3004 38.8876C93.0189 37.9731 93.6395 36.7647 94.1621 35.2622C94.6846 33.7598 95.0929 32.1268 95.3869 30.3631C95.6808 28.5667 95.8278 26.803 95.8278 25.072C95.8278 23.3409 95.6155 22.1815 95.1909 21.5936C94.7663 21.0057 94.2111 20.7117 93.5252 20.7117C92.6433 20.7117 91.8268 21.1853 91.0756 22.1325C90.357 23.047 89.7365 24.2554 89.2139 25.7579C88.6913 27.2603 88.2831 28.877 87.9891 30.608C87.7278 32.3391 87.5972 34.0048 87.5972 35.6052C87.5972 37.4995 87.8258 38.757 88.2831 39.3775C88.7403 39.9654 89.2792 40.2594 89.8998 40.2594Z" fill="#939DD1"/>
<path d="M66.1674 32.9112C66.6247 32.9112 67.0657 32.7315 67.4903 32.3722C67.9475 32.013 68.3231 31.3434 68.6171 30.3636C68.911 29.3511 69.058 27.914 69.058 26.0523C69.058 24.158 68.8294 22.6882 68.3721 21.6431C67.9475 20.5979 67.3269 20.0753 66.5104 20.0753C65.5959 20.0753 64.8773 20.6796 64.3548 21.888C63.8648 23.0965 63.6199 24.7295 63.6199 26.7872C63.6199 27.7344 63.6852 28.6815 63.8159 29.6287C63.9792 30.5759 64.2405 31.3598 64.5997 31.9803C64.9917 32.6009 65.5142 32.9112 66.1674 32.9112ZM56.1732 27.914C56.1732 26.1176 56.6631 24.4519 57.6429 22.9169C58.6228 21.3818 59.9455 20.1407 61.6112 19.1935C63.277 18.2463 65.1387 17.7727 67.1963 17.7727C69.1886 17.7727 70.8217 18.23 72.0955 19.1445C73.3692 20.0263 74.2184 21.0552 74.643 22.231C75.1983 19.9774 75.9005 18.426 76.7497 17.5768C77.6315 16.7276 78.6767 16.303 79.8851 16.303C80.8323 16.303 81.6325 16.5153 82.2857 16.9399C82.3837 17.1032 82.4654 17.2991 82.5307 17.5278C82.596 17.7237 82.6287 18.0014 82.6287 18.3606C82.6287 19.961 82.1224 21.1532 81.1099 21.937C80.0974 22.6882 78.5297 23.2925 76.4067 23.7497C76.3088 24.0763 76.2108 24.4193 76.1128 24.7785C76.0474 25.1378 75.9658 25.4971 75.8678 25.8564C75.4106 27.6527 74.7573 29.2531 73.9081 30.6575C73.0916 32.062 71.9158 33.1561 70.3807 33.94C68.8783 34.7238 66.8697 35.1158 64.3548 35.1158C63.7015 35.1158 63.081 35.0668 62.4931 34.9688C61.9379 34.8382 61.4153 34.6912 60.9253 34.5279C60.5987 34.8218 60.4028 35.0668 60.3375 35.2628C60.2721 35.4587 60.2395 35.671 60.2395 35.8996C60.2395 36.2916 60.3865 36.6672 60.6804 37.0265C60.9744 37.3857 61.5786 37.598 62.4931 37.6633L69.8908 38.2512C71.8178 38.3819 73.3202 38.7412 74.3981 39.3291C75.4759 39.8843 76.2271 40.6028 76.6517 41.4847C77.1089 42.3665 77.3376 43.3464 77.3376 44.4242C77.3376 46.2206 76.6027 47.821 75.1329 49.2254C73.6632 50.6298 71.6545 51.7403 69.107 52.5568C66.5921 53.3733 63.7342 53.7816 60.5334 53.7816C57.398 53.7816 54.9974 53.357 53.3316 52.5078C51.6986 51.6913 50.8821 50.4992 50.8821 48.9314C50.8821 47.7556 51.421 46.7268 52.4988 45.845C53.5766 44.9958 54.8177 44.2609 56.2222 43.6403C55.569 43.2811 55.03 42.8075 54.6054 42.2196C54.1808 41.6317 53.9686 40.9295 53.9686 40.1129C53.9686 38.6758 54.4258 37.4674 55.3403 36.4875C56.2548 35.4751 57.5123 34.4952 59.1127 33.548C58.1328 32.8295 57.3979 31.964 56.908 30.9515C56.4181 29.939 56.1732 28.9265 56.1732 27.914ZM57.104 47.1677C57.104 48.2782 57.6593 49.1437 58.7697 49.7643C59.9129 50.3849 61.4806 50.6951 63.4729 50.6951C65.5959 50.6951 67.2126 50.4175 68.3231 49.8623C69.4662 49.307 70.0378 48.5232 70.0378 47.5107C70.0378 45.9429 68.666 45.0448 65.9225 44.8161L58.3288 44.1302C57.9696 44.5548 57.6756 45.0121 57.447 45.502C57.2183 46.0246 57.104 46.5798 57.104 47.1677Z" fill="#939DD1"/>
<path d="M39.0744 43.1989C37.2127 43.1989 35.5143 42.8723 33.9793 42.2191C32.4769 41.5332 31.2684 40.488 30.3539 39.0836C29.472 37.6465 29.0311 35.8012 29.0311 33.5475C29.0311 31.5552 29.3904 29.6282 30.1089 27.7665C30.8601 25.8722 31.9053 24.1738 33.2444 22.6714C34.5835 21.169 36.1676 19.9768 37.9966 19.095C39.8256 18.2131 41.8179 17.7722 43.9736 17.7722C45.8679 17.7722 47.55 18.1152 49.0197 18.801C50.5221 19.4543 51.7143 20.4831 52.5961 21.8875C53.478 23.2919 53.9189 25.1373 53.9189 27.4236C53.9189 29.4159 53.5433 31.3592 52.7921 33.2536C52.0735 35.1479 51.0447 36.8463 49.7056 38.3487C48.3992 39.8185 46.8314 40.9943 45.0024 41.8761C43.206 42.758 41.23 43.1989 39.0744 43.1989ZM39.6623 40.2594C40.5442 40.2594 41.3444 39.8021 42.0629 38.8876C42.7815 37.9731 43.402 36.7647 43.9246 35.2622C44.4472 33.7598 44.8554 32.1268 45.1494 30.3631C45.4433 28.5667 45.5903 26.803 45.5903 25.072C45.5903 23.3409 45.378 22.1815 44.9534 21.5936C44.5288 21.0057 43.9736 20.7117 43.2877 20.7117C42.4059 20.7117 41.5893 21.1853 40.8381 22.1325C40.1196 23.047 39.499 24.2554 38.9764 25.7579C38.4539 27.2603 38.0456 28.877 37.7516 30.608C37.4904 32.3391 37.3597 34.0048 37.3597 35.6052C37.3597 37.4995 37.5883 38.757 38.0456 39.3775C38.5029 39.9654 39.0417 40.2594 39.6623 40.2594Z" fill="#939DD1"/>
<path d="M5.48709 13.3632L6.07497 10.4727H22.4872L21.8993 13.3632L17.735 13.7551L15.1874 27.1788C14.7955 29.2365 14.4035 31.2941 14.0116 33.3518C13.6523 35.4094 13.2931 37.4507 12.9338 39.4757H20.3315L22.9281 32.6659H27.0434L24.7408 42.4152H0L0.587885 39.5247L4.31127 39.1328L6.85885 25.6601C7.25078 23.6677 7.62636 21.6917 7.98563 19.7321C8.3449 17.7398 8.68787 15.7474 9.01448 13.7551L5.48709 13.3632Z" fill="#939DD1"/>
<path d="M96.2362 13.0454C96.2996 12.7601 96.4318 12.5382 96.6325 12.3797C96.8333 12.2317 97.0763 12.1578 97.3616 12.1578C97.6469 12.1578 97.89 12.2317 98.0907 12.3797C98.3021 12.5382 98.524 12.7812 98.7565 13.1088C99.0312 12.908 99.2954 12.6967 99.549 12.4748C99.8026 12.2634 100.046 12.031 100.278 11.7774C100.289 11.7668 100.294 11.7562 100.294 11.7457C100.304 11.7457 100.31 11.7457 100.31 11.7457C100.151 10.6784 99.9875 9.63759 99.8184 8.62317C99.6494 7.60876 99.475 6.54679 99.2954 5.43727C99.2425 5.00403 99.1844 4.73986 99.121 4.64476C99.0682 4.53909 98.9836 4.48626 98.8674 4.48626C98.7829 4.48626 98.6772 4.52853 98.5504 4.61306C98.4342 4.6976 98.2968 4.84025 98.1383 5.04102L97.7737 4.61306C98.6297 3.40844 99.438 2.80613 100.199 2.80613C100.6 2.80613 100.891 2.9435 101.071 3.21824C101.25 3.48241 101.377 3.94207 101.451 4.59721C101.557 5.49539 101.652 6.37244 101.736 7.22835C101.831 8.08426 101.916 8.92961 101.99 9.76439C102.317 8.94018 102.598 8.15823 102.83 7.41855C103.073 6.66831 103.295 5.89165 103.496 5.08857C103.654 4.49683 103.797 4.03717 103.924 3.7096C104.061 3.37146 104.219 3.1337 104.399 2.99634C104.579 2.85897 104.801 2.79028 105.065 2.79028C105.308 2.79028 105.524 2.86425 105.715 3.01219C105.905 3.16012 106 3.37146 106 3.6462C106 3.92093 105.942 4.19039 105.826 4.45456C105.72 4.70816 105.577 5.00403 105.398 5.34217C105.229 5.64861 105.038 5.98675 104.827 6.35659C104.626 6.71586 104.389 7.10155 104.114 7.51366C103.818 7.96803 103.506 8.45939 103.179 8.98773C102.851 9.5055 102.46 10.0603 102.006 10.652C101.763 10.9901 101.493 11.3388 101.197 11.6981C100.912 12.0574 100.563 12.4589 100.151 12.9027C99.7497 13.3254 99.3376 13.6636 98.9149 13.9172C98.5028 14.1813 98.0696 14.3134 97.6152 14.3134C97.2348 14.3134 96.9125 14.2025 96.6484 13.9806C96.3842 13.7692 96.2468 13.4575 96.2362 13.0454Z" fill="#939DD1"/>
<path d="M91.4152 10.7154L89.3547 10.8422L89.1328 10.652L90.4325 4.45456L89.323 4.28021L89.4339 3.69375L92.6674 2.79028L92.9685 3.04389L92.6832 4.50211C93.2327 3.97377 93.7822 3.56166 94.3317 3.26579C94.8812 2.95935 95.4095 2.80613 95.9167 2.80613C96.2549 2.80613 96.5402 2.91708 96.7726 3.13899C97.0051 3.36089 97.1213 3.69375 97.1213 4.13755C97.1213 4.34889 97.1002 4.57079 97.0579 4.80326C97.0262 5.03573 96.9787 5.27349 96.9153 5.51653L96.1703 8.51222C96.128 8.66016 96.0911 8.79224 96.0594 8.90848C96.0382 9.01415 96.0277 9.10925 96.0277 9.19378C96.0277 9.40512 96.1122 9.51079 96.2813 9.51079C96.556 9.51079 96.947 9.18322 97.4542 8.52807L97.9297 8.84508C97.7289 9.19378 97.4753 9.53192 97.1689 9.85949C96.8624 10.1765 96.5137 10.4407 96.1227 10.652C95.7423 10.8528 95.325 10.9532 94.8706 10.9532C94.4902 10.9532 94.1943 10.8686 93.983 10.6996C93.7822 10.5199 93.6818 10.2716 93.6818 9.95459C93.6818 9.71156 93.7082 9.46324 93.7611 9.20963C93.8245 8.95603 93.8879 8.71299 93.9513 8.48052L94.5377 6.10298C94.6011 5.85995 94.6487 5.63804 94.6804 5.43727C94.7227 5.22594 94.7438 5.05687 94.7438 4.93007C94.7438 4.75043 94.7015 4.62363 94.617 4.54966C94.543 4.47569 94.4479 4.43871 94.3317 4.43871C94.0992 4.43871 93.8245 4.51796 93.5075 4.67646C93.201 4.8244 92.8629 5.06743 92.4931 5.40557L92.0809 7.32345C91.9647 7.8835 91.8538 8.44882 91.7481 9.01943C91.6424 9.57947 91.5314 10.1448 91.4152 10.7154Z" fill="#939DD1"/>
<path d="M82.6449 7.92452C82.6449 8.42116 82.7241 8.78044 82.8826 9.00234C83.0411 9.22424 83.2525 9.3352 83.5166 9.3352C83.728 9.3352 83.9446 9.26651 84.1665 9.12914C84.399 8.98121 84.642 8.78572 84.8956 8.54268C84.9062 8.48985 84.9115 8.4423 84.9115 8.40003C84.922 8.35776 84.9326 8.3155 84.9432 8.27323L85.8308 4.19972C85.5666 4.05178 85.2919 3.97781 85.0066 3.97781C84.6578 3.97781 84.288 4.15745 83.8971 4.51672C83.654 4.73862 83.4374 5.05035 83.2472 5.45188C83.057 5.84286 82.909 6.26025 82.8034 6.70405C82.6977 7.13729 82.6449 7.54412 82.6449 7.92452ZM86.1002 10.9519C85.7092 10.9519 85.3922 10.8357 85.1492 10.6032C84.9062 10.3602 84.7847 9.99562 84.7847 9.50955C84.7847 9.47785 84.7847 9.44615 84.7847 9.41445C84.7847 9.38275 84.7847 9.35633 84.7847 9.3352C84.362 9.8107 83.9076 10.2017 83.4216 10.5081C82.9355 10.804 82.4705 10.9519 82.0267 10.9519C81.7308 10.9519 81.4561 10.878 81.2025 10.73C80.9489 10.5926 80.7428 10.3655 80.5843 10.0485C80.4258 9.72088 80.3466 9.28764 80.3466 8.74874C80.3466 8.17813 80.4523 7.6128 80.6636 7.05276C80.8855 6.48215 81.1814 5.94324 81.5512 5.43603C81.9316 4.92883 82.3543 4.47974 82.8192 4.08876C83.2842 3.68722 83.765 3.3755 84.2616 3.1536C84.7582 2.92113 85.239 2.80489 85.704 2.80489C85.947 2.80489 86.1742 2.85244 86.3855 2.94755C86.5969 3.03208 86.7924 3.1536 86.972 3.3121L88.1291 2.77319L88.3985 2.9634L87.1305 8.51098C87.0882 8.64835 87.0565 8.77515 87.0354 8.89139C87.0143 9.00762 87.0037 9.10801 87.0037 9.19254C87.0037 9.40388 87.0988 9.50955 87.289 9.50955C87.4369 9.50955 87.6007 9.42501 87.7804 9.25594C87.9706 9.07631 88.1872 8.82799 88.4302 8.51098L88.9216 8.84384C88.7314 9.17141 88.4883 9.49898 88.1924 9.82655C87.9071 10.1541 87.5849 10.4236 87.2256 10.6349C86.8769 10.8463 86.5018 10.9519 86.1002 10.9519Z" fill="#939DD1"/>
<path d="M70.5492 14.3134L70.676 13.6953L71.627 13.5367L73.5291 4.45456L72.4196 4.28021L72.5146 3.69375L75.7481 2.79028L76.0492 3.04389L75.7798 4.40701C76.2025 3.91037 76.6674 3.51939 77.1746 3.23409C77.6818 2.94879 78.1573 2.80613 78.6011 2.80613C79.0555 2.80613 79.4412 2.96464 79.7582 3.28164C80.0858 3.58808 80.2496 4.15869 80.2496 4.99347C80.2496 5.73314 80.0963 6.45697 79.7899 7.16495C79.494 7.87293 79.0925 8.51222 78.5853 9.08283C78.0886 9.65344 77.5339 10.1078 76.921 10.446C76.3187 10.7841 75.7164 10.9532 75.1141 10.9532C74.8605 10.9532 74.628 10.9162 74.4167 10.8422C74.311 11.36 74.2159 11.8355 74.1314 12.2687C74.0574 12.702 73.9834 13.1194 73.9095 13.5209L75.0665 13.6953L74.9397 14.3134H70.5492ZM77.0795 4.43871C76.847 4.43871 76.604 4.51268 76.3504 4.66061C76.0968 4.80855 75.8485 4.99347 75.6055 5.21537L74.7495 9.41568C75.0243 9.65872 75.3096 9.78024 75.6055 9.78024C75.9119 9.78024 76.1866 9.69571 76.4297 9.52664C76.6833 9.347 76.9316 9.0617 77.1746 8.67072C77.4071 8.30088 77.5973 7.84123 77.7452 7.29175C77.9037 6.74228 77.983 6.22979 77.983 5.75428C77.983 5.28934 77.909 4.95648 77.7611 4.75571C77.6132 4.54438 77.3859 4.43871 77.0795 4.43871Z" fill="#939DD1"/>
<path d="M61.145 10.7154L59.0845 10.8422L58.8626 10.652L60.1623 4.45456L59.0528 4.28021L59.1637 3.69375L62.3972 2.79028L62.6983 3.04389L62.4289 4.43871C62.9572 3.9315 63.4908 3.53524 64.0298 3.24994C64.5792 2.95407 65.097 2.80613 65.5831 2.80613C65.9318 2.80613 66.2224 2.91708 66.4548 3.13899C66.6873 3.36089 66.8035 3.69375 66.8035 4.13755C66.8035 4.19039 66.8035 4.24851 66.8035 4.31191C66.8035 4.36474 66.7983 4.41757 66.7877 4.47041C67.316 3.94207 67.8497 3.53524 68.3886 3.24994C68.938 2.95407 69.4558 2.80613 69.9419 2.80613C70.28 2.80613 70.5653 2.91708 70.7978 3.13899C71.0303 3.36089 71.1465 3.69375 71.1465 4.13755C71.1465 4.34889 71.1254 4.57079 71.0831 4.80326C71.0514 5.03573 71.0039 5.27349 70.9404 5.51653L70.1955 8.51222C70.1532 8.66016 70.1162 8.79224 70.0845 8.90848C70.0634 9.01415 70.0528 9.10925 70.0528 9.19378C70.0528 9.40512 70.1374 9.51079 70.3064 9.51079C70.5706 9.51079 70.9616 9.18322 71.4793 8.52807L71.9549 8.84508C71.7435 9.20435 71.4847 9.54777 71.1782 9.87534C70.8823 10.1923 70.5389 10.4512 70.148 10.652C69.7675 10.8528 69.3449 10.9532 68.8799 10.9532C68.5101 10.9532 68.2195 10.8686 68.0081 10.6996C67.8074 10.5199 67.707 10.2716 67.707 9.95459C67.707 9.71156 67.7334 9.46324 67.7863 9.20963C67.8497 8.95603 67.913 8.71299 67.9764 8.48052L68.5629 6.10298C68.6263 5.85995 68.6739 5.63804 68.7056 5.43727C68.7478 5.22594 68.769 5.05687 68.769 4.93007C68.769 4.75043 68.7267 4.62363 68.6422 4.54966C68.5682 4.47569 68.4731 4.43871 68.3569 4.43871C68.135 4.43871 67.8761 4.51268 67.5802 4.66061C67.2949 4.80855 66.9779 5.04102 66.6292 5.35802L66.2171 7.32345C66.1009 7.8835 65.9846 8.44882 65.8684 9.01943C65.7627 9.57947 65.657 10.1448 65.5514 10.7154L63.4909 10.8422L63.2689 10.652L64.2516 5.92863C64.3045 5.71729 64.3468 5.52709 64.3785 5.35802C64.4102 5.17839 64.426 5.02517 64.426 4.89837C64.426 4.73986 64.3838 4.62363 64.2992 4.54966C64.2253 4.47569 64.1301 4.43871 64.0139 4.43871C63.7814 4.43871 63.5173 4.51268 63.2214 4.66061C62.9255 4.80855 62.5979 5.03573 62.2387 5.34217L61.8107 7.32345C61.6945 7.8835 61.5835 8.44882 61.4779 9.01943C61.3722 9.57947 61.2612 10.1448 61.145 10.7154Z" fill="#939DD1"/>
<path d="M53.7403 10.9527C53.1697 10.9527 52.6519 10.847 52.187 10.6357C51.722 10.4138 51.3522 10.0809 51.0775 9.63712C50.8027 9.18275 50.6653 8.61214 50.6653 7.92529C50.6653 7.25958 50.7816 6.62557 51.014 6.02326C51.2465 5.41039 51.5688 4.86091 51.9809 4.37484C52.4036 3.88877 52.8949 3.50836 53.455 3.23362C54.015 2.94832 54.6279 2.80566 55.2936 2.80566C55.8748 2.80566 56.3926 2.91662 56.8469 3.13852C57.3013 3.34986 57.6606 3.67743 57.9247 4.12123C58.1995 4.56504 58.3369 5.13565 58.3369 5.83306C58.3369 6.49877 58.2206 7.13806 57.9881 7.75094C57.7557 8.35325 57.4334 8.89744 57.0213 9.38352C56.6092 9.86959 56.1231 10.2553 55.563 10.5406C55.003 10.8153 54.3954 10.9527 53.7403 10.9527ZM53.9305 10.0968C54.2369 10.0968 54.5169 9.95941 54.7705 9.68467C55.0347 9.39937 55.2619 9.02424 55.4521 8.5593C55.6423 8.09436 55.7849 7.58187 55.88 7.02183C55.9857 6.46179 56.0386 5.90703 56.0386 5.35755C56.0386 4.71298 55.9487 4.27445 55.7691 4.04198C55.6 3.79895 55.3729 3.67743 55.0875 3.67743C54.7705 3.67743 54.4799 3.82008 54.2158 4.10538C53.9622 4.38012 53.7403 4.74996 53.5501 5.2149C53.3599 5.66927 53.2119 6.1712 53.1063 6.72067C53.0112 7.27015 52.9636 7.81434 52.9636 8.35325C52.9636 9.02953 53.0535 9.48918 53.2331 9.73222C53.4233 9.97526 53.6557 10.0968 53.9305 10.0968Z" fill="#939DD1"/>
<path d="M46.2022 11.0159C45.2618 11.0159 44.4323 10.8416 43.7138 10.4929C42.9952 10.1336 42.4352 9.61053 42.0337 8.92369C41.6321 8.22628 41.4314 7.37565 41.4314 6.3718C41.4314 5.49475 41.5793 4.67054 41.8751 3.89916C42.171 3.12778 42.5937 2.4515 43.1432 1.87033C43.6926 1.27859 44.3478 0.81893 45.1086 0.491358C45.88 0.163786 46.7306 0 47.6605 0C48.2311 0 48.7541 0.0686851 49.2297 0.206054C49.7157 0.332856 50.2177 0.538909 50.7354 0.824213L50.3709 3.2493H49.1345L49.1028 1.25217C48.7224 1.03027 48.2945 0.919315 47.819 0.919315C47.2378 0.919315 46.7095 1.07253 46.2339 1.37897C45.7584 1.67484 45.3463 2.08167 44.9976 2.59944C44.6595 3.11722 44.3953 3.71424 44.2051 4.39052C44.0255 5.05623 43.9357 5.75892 43.9357 6.4986C43.9357 7.18545 44.0413 7.8036 44.2527 8.35308C44.4746 8.89199 44.7916 9.31994 45.2037 9.63695C45.6264 9.94339 46.1441 10.0966 46.757 10.0966C46.9366 10.0966 47.111 10.0808 47.2801 10.0491C47.4492 10.0174 47.6182 9.97509 47.7873 9.92225L48.5798 7.78247H49.8003L49.3882 10.2234C48.9972 10.4453 48.5376 10.6302 48.0092 10.7782C47.4914 10.9367 46.8891 11.0159 46.2022 11.0159Z" fill="#939DD1"/>
</svg>
