<svg width="420" height="693" viewBox="0 0 420 693" fill="none" xmlns="http://www.w3.org/2000/svg">
<path fill-rule="evenodd" clip-rule="evenodd" d="M374.934 672.897C380.407 663.303 389.478 654.202 399.206 648.97C411.599 642.307 420 629.394 420 614.558V39.2211C420 17.5599 402.091 -1.89369e-06 380 0L40 9.35103e-05C17.9086 9.5404e-05 -1.93129e-06 17.56 0 39.2212L3.392e-05 614.558C3.63152e-05 629.394 8.40132 642.307 20.7936 648.97C30.522 654.202 39.5927 663.303 45.0657 672.897C51.9077 684.892 64.9881 693 80 693L340 693C355.012 693 368.092 684.891 374.934 672.897Z" fill="#393DFF"/>
</svg>
