<svg width="1170" height="508" viewBox="0 0 1170 508" fill="none" xmlns="http://www.w3.org/2000/svg">
<path fill-rule="evenodd" clip-rule="evenodd" d="M1125.11 487.18C1130.41 477.491 1139.49 468.415 1149.18 463.111C1161.59 456.319 1170 443.142 1170 428V40C1170 17.9086 1152.09 -1.93129e-06 1130 0L40 9.52908e-05C17.9086 9.72221e-05 -1.93129e-06 17.9087 0 40.0001L3.392e-05 428C3.63169e-05 443.142 8.41352 456.319 20.8206 463.111C30.5096 468.415 39.5856 477.491 44.8895 487.18C51.6814 499.587 64.8582 508 80 508L1090 508C1105.14 508 1118.32 499.587 1125.11 487.18Z" fill="#393DFF"/>
</svg>
