<svg width="1920" height="1024" viewBox="0 0 1920 1024" fill="none" xmlns="http://www.w3.org/2000/svg">
<g clip-path="url(#clip0_1_1186)">
<ellipse cx="1900.38" cy="529.756" rx="572.905" ry="428.497" transform="rotate(35.8247 1900.38 529.756)" fill="url(#paint0_radial_1_1186)" fill-opacity="0.4"/>
<ellipse cx="-42.6796" cy="529.756" rx="572.905" ry="428.497" transform="rotate(35.8247 -42.6796 529.756)" fill="url(#paint1_radial_1_1186)" fill-opacity="0.4"/>
<g opacity="0.4" filter="url(#filter0_f_1_1186)">
<path d="M1108.51 749.721L1193.2 737.81L1181.77 827.514L1092.84 834.975L1108.51 749.721Z" fill="url(#paint2_linear_1_1186)"/>
<path d="M1222.19 777.795L1193.2 737.81L1181.77 827.514L1214.37 861.982L1222.19 777.795Z" fill="url(#paint3_linear_1_1186)"/>
<path d="M1129.68 866.969L1092.84 834.975L1181.77 827.514L1214.37 861.982L1129.68 866.969Z" fill="url(#paint4_linear_1_1186)"/>
</g>
<g opacity="0.6" filter="url(#filter1_f_1_1186)">
<path d="M749.894 758.357L669.748 731.158L663.659 634.457L738.131 662.885L749.894 758.357Z" fill="url(#paint5_linear_1_1186)"/>
<path d="M749.894 758.357L669.747 731.157L583.87 773.516L664.017 800.715L749.894 758.357Z" fill="url(#paint6_linear_1_1186)"/>
<path d="M663.659 634.457L669.748 731.158L583.871 773.516L581.234 679.038L663.659 634.457Z" fill="url(#paint7_linear_1_1186)"/>
</g>
<g filter="url(#filter2_f_1_1186)">
<path d="M864.937 348.173L802.222 342.482L780.949 273.6L839.774 281.17L864.937 348.173Z" fill="url(#paint8_linear_1_1186)"/>
<path d="M864.937 348.173L802.222 342.482L747.497 388.101L810.212 393.792L864.937 348.173Z" fill="url(#paint9_linear_1_1186)"/>
<path d="M780.949 273.6L802.222 342.482L747.497 388.101L729.108 320.225L780.949 273.6Z" fill="url(#paint10_linear_1_1186)"/>
</g>
<g filter="url(#filter3_f_1_1186)">
<path d="M1826.58 449.7L1788.39 474.979L1745 445.548L1781.83 423.105L1826.58 449.7Z" fill="url(#paint11_linear_1_1186)"/>
<path d="M1826.58 449.7L1788.39 474.979L1778.06 525.752L1816.25 500.473L1826.58 449.7Z" fill="url(#paint12_linear_1_1186)"/>
<path d="M1745 445.548L1788.39 474.979L1778.06 525.751L1736.77 495.581L1745 445.548Z" fill="url(#paint13_linear_1_1186)"/>
</g>
<g opacity="0.6" filter="url(#filter4_f_1_1186)">
<path d="M266.576 826.7L228.388 851.979L185 822.548L221.834 800.105L266.576 826.7Z" fill="url(#paint14_linear_1_1186)"/>
<path d="M266.576 826.7L228.388 851.979L218.061 902.752L256.248 877.473L266.576 826.7Z" fill="url(#paint15_linear_1_1186)"/>
<path d="M185 822.548L228.389 851.979L218.061 902.751L176.767 872.581L185 822.548Z" fill="url(#paint16_linear_1_1186)"/>
</g>
<g opacity="0.8" filter="url(#filter5_f_1_1186)">
<path d="M1467.91 262.762L1422.78 254.98L1411.37 203.807L1453.57 212.724L1467.91 262.762Z" fill="url(#paint17_linear_1_1186)"/>
<path d="M1467.91 262.762L1422.78 254.979L1380.45 284.858L1425.58 292.64L1467.91 262.762Z" fill="url(#paint18_linear_1_1186)"/>
<path d="M1411.37 203.807L1422.78 254.979L1380.45 284.858L1371.07 234.582L1411.37 203.807Z" fill="url(#paint19_linear_1_1186)"/>
</g>
<g opacity="0.4" filter="url(#filter6_f_1_1186)">
<path d="M230.064 353.209L117.843 318.056L202.586 233.602L308.708 276.738L230.064 353.209Z" fill="url(#paint20_linear_1_1186)"/>
<path d="M286.685 176.471L184.033 127.136L202.585 233.602L308.708 276.738L286.685 176.471Z" fill="url(#paint21_linear_1_1186)"/>
<path d="M103.654 206.706L184.033 127.136L202.586 233.602L117.843 318.056L103.654 206.706Z" fill="url(#paint22_linear_1_1186)"/>
</g>
<g opacity="0.6" filter="url(#filter7_f_1_1186)">
<path d="M1637.36 811.734L1441.78 840.678L1508.22 650.823L1700.42 638.428L1637.36 811.734Z" fill="url(#paint23_linear_1_1186)"/>
<path d="M1593.69 502.794L1402.21 503.266L1508.22 650.823L1700.41 638.428L1593.69 502.794Z" fill="url(#paint24_linear_1_1186)"/>
<path d="M1338.8 682.533L1402.21 503.266L1508.22 650.823L1441.78 840.677L1338.8 682.533Z" fill="url(#paint25_linear_1_1186)"/>
</g>
<g opacity="0.5" filter="url(#filter8_f_1_1186)">
<path d="M1075.95 623.419L961.868 607.908L1029.8 512.49L1139.3 536.707L1075.95 623.419Z" fill="url(#paint26_linear_1_1186)"/>
<path d="M1101.59 443.549L994.419 412.78L1029.8 512.49L1139.3 536.708L1101.59 443.549Z" fill="url(#paint27_linear_1_1186)"/>
<path d="M929.9 502.767L994.419 412.78L1029.8 512.49L961.868 607.908L929.9 502.767Z" fill="url(#paint28_linear_1_1186)"/>
</g>
<g opacity="0.4" filter="url(#filter9_f_1_1186)">
<path d="M938.59 111.103L1105.1 29.1373L1142.35 221.808L964.074 297.477L938.59 111.103Z" fill="url(#paint29_linear_1_1186)"/>
<path d="M1191.97 91.9141L1105.1 29.1377L1142.35 221.808L1232.92 270.764L1191.97 91.9141Z" fill="url(#paint30_linear_1_1186)"/>
<path d="M1061.72 338.454L964.075 297.477L1142.35 221.808L1232.92 270.764L1061.72 338.454Z" fill="url(#paint31_linear_1_1186)"/>
</g>
<g filter="url(#filter10_f_1_1186)">
<path d="M211.615 664.79L312.343 476.477L476.387 631.653L360.436 821.969L211.615 664.79Z" fill="url(#paint32_linear_1_1186)"/>
<path d="M435.67 476.919L312.343 476.478L476.388 631.653L593.909 616.689L435.67 476.919Z" fill="url(#paint33_linear_1_1186)"/>
<path d="M479.222 794.799L360.437 821.97L476.388 631.653L593.909 616.689L479.222 794.799Z" fill="url(#paint34_linear_1_1186)"/>
</g>
<g opacity="0.5" filter="url(#filter11_f_1_1186)">
<path d="M1614.04 215.286L1701.65 155.697L1738.04 261.656L1643.28 318.622L1614.04 215.286Z" fill="url(#paint35_linear_1_1186)"/>
<path d="M1755.76 184.274L1701.65 155.697L1738.04 261.656L1793.14 282.125L1755.76 184.274Z" fill="url(#paint36_linear_1_1186)"/>
<path d="M1701.74 334.017L1643.28 318.622L1738.04 261.656L1793.14 282.126L1701.74 334.017Z" fill="url(#paint37_linear_1_1186)"/>
</g>
<g filter="url(#filter12_f_1_1186)">
<path d="M-123.694 579.018L-7.19566 477L64.4333 624.237L-62.907 723.722L-123.694 579.018Z" fill="url(#paint38_linear_1_1186)"/>
<path d="M76.3713 508.835L-7.1958 477L64.4331 624.237L148 644.134L76.3713 508.835Z" fill="url(#paint39_linear_1_1186)"/>
<path d="M24.6392 735.661L-62.9072 723.722L64.4331 624.238L148 644.135L24.6392 735.661Z" fill="url(#paint40_linear_1_1186)"/>
</g>
<g opacity="0.8" filter="url(#filter13_f_1_1186)">
<path d="M1802 709.362L1900.62 623L1961.26 747.642L1853.46 831.859L1802 709.362Z" fill="url(#paint41_linear_1_1186)"/>
<path d="M1971.36 649.95L1900.62 623L1961.26 747.642L2032 764.485L1971.36 649.95Z" fill="url(#paint42_linear_1_1186)"/>
<path d="M1927.57 841.966L1853.46 831.86L1961.26 747.642L2032 764.486L1927.57 841.966Z" fill="url(#paint43_linear_1_1186)"/>
</g>
<g opacity="0.4" filter="url(#filter14_f_1_1186)">
<path d="M577.551 48.4241L681.081 50.4708L650.17 155.507L542.422 147.325L577.551 48.4241Z" fill="url(#paint44_linear_1_1186)"/>
<path d="M708.047 103.844L681.082 50.4707L650.17 155.507L682.513 202.98L708.047 103.844Z" fill="url(#paint45_linear_1_1186)"/>
<path d="M580.316 192.656L542.422 147.325L650.17 155.507L682.512 202.98L580.316 192.656Z" fill="url(#paint46_linear_1_1186)"/>
</g>
<g opacity="0.5" filter="url(#filter15_f_1_1186)">
<path d="M803.576 840.318L900.345 752.398L963.087 875.585L857.126 961.534L803.576 840.318Z" fill="url(#paint47_linear_1_1186)"/>
<path d="M971.382 777.981L900.345 752.398L963.087 875.585L1033.94 891.091L971.382 777.981Z" fill="url(#paint48_linear_1_1186)"/>
<path d="M931.215 970.26L857.126 961.534L963.086 875.585L1033.94 891.091L931.215 970.26Z" fill="url(#paint49_linear_1_1186)"/>
</g>
</g>
<defs>
<filter id="filter0_f_1_1186" x="1074.84" y="719.81" width="165.353" height="165.16" filterUnits="userSpaceOnUse" color-interpolation-filters="sRGB">
<feFlood flood-opacity="0" result="BackgroundImageFix"/>
<feBlend mode="normal" in="SourceGraphic" in2="BackgroundImageFix" result="shape"/>
<feGaussianBlur stdDeviation="9" result="effect1_foregroundBlur_1_1186"/>
</filter>
<filter id="filter1_f_1_1186" x="563.234" y="616.457" width="204.66" height="202.257" filterUnits="userSpaceOnUse" color-interpolation-filters="sRGB">
<feFlood flood-opacity="0" result="BackgroundImageFix"/>
<feBlend mode="normal" in="SourceGraphic" in2="BackgroundImageFix" result="shape"/>
<feGaussianBlur stdDeviation="9" result="effect1_foregroundBlur_1_1186"/>
</filter>
<filter id="filter2_f_1_1186" x="711.108" y="255.6" width="171.83" height="156.192" filterUnits="userSpaceOnUse" color-interpolation-filters="sRGB">
<feFlood flood-opacity="0" result="BackgroundImageFix"/>
<feBlend mode="normal" in="SourceGraphic" in2="BackgroundImageFix" result="shape"/>
<feGaussianBlur stdDeviation="9" result="effect1_foregroundBlur_1_1186"/>
</filter>
<filter id="filter3_f_1_1186" x="1718.77" y="405.104" width="125.809" height="138.647" filterUnits="userSpaceOnUse" color-interpolation-filters="sRGB">
<feFlood flood-opacity="0" result="BackgroundImageFix"/>
<feBlend mode="normal" in="SourceGraphic" in2="BackgroundImageFix" result="shape"/>
<feGaussianBlur stdDeviation="9" result="effect1_foregroundBlur_1_1186"/>
</filter>
<filter id="filter4_f_1_1186" x="148.768" y="772.104" width="145.809" height="158.647" filterUnits="userSpaceOnUse" color-interpolation-filters="sRGB">
<feFlood flood-opacity="0" result="BackgroundImageFix"/>
<feBlend mode="normal" in="SourceGraphic" in2="BackgroundImageFix" result="shape"/>
<feGaussianBlur stdDeviation="14" result="effect1_foregroundBlur_1_1186"/>
</filter>
<filter id="filter5_f_1_1186" x="1353.07" y="185.807" width="132.833" height="124.833" filterUnits="userSpaceOnUse" color-interpolation-filters="sRGB">
<feFlood flood-opacity="0" result="BackgroundImageFix"/>
<feBlend mode="normal" in="SourceGraphic" in2="BackgroundImageFix" result="shape"/>
<feGaussianBlur stdDeviation="9" result="effect1_foregroundBlur_1_1186"/>
</filter>
<filter id="filter6_f_1_1186" x="75.6543" y="99.1362" width="261.054" height="282.072" filterUnits="userSpaceOnUse" color-interpolation-filters="sRGB">
<feFlood flood-opacity="0" result="BackgroundImageFix"/>
<feBlend mode="normal" in="SourceGraphic" in2="BackgroundImageFix" result="shape"/>
<feGaussianBlur stdDeviation="14" result="effect1_foregroundBlur_1_1186"/>
</filter>
<filter id="filter7_f_1_1186" x="1320.8" y="484.794" width="397.615" height="373.884" filterUnits="userSpaceOnUse" color-interpolation-filters="sRGB">
<feFlood flood-opacity="0" result="BackgroundImageFix"/>
<feBlend mode="normal" in="SourceGraphic" in2="BackgroundImageFix" result="shape"/>
<feGaussianBlur stdDeviation="9" result="effect1_foregroundBlur_1_1186"/>
</filter>
<filter id="filter8_f_1_1186" x="911.9" y="394.78" width="245.4" height="246.639" filterUnits="userSpaceOnUse" color-interpolation-filters="sRGB">
<feFlood flood-opacity="0" result="BackgroundImageFix"/>
<feBlend mode="normal" in="SourceGraphic" in2="BackgroundImageFix" result="shape"/>
<feGaussianBlur stdDeviation="9" result="effect1_foregroundBlur_1_1186"/>
</filter>
<filter id="filter9_f_1_1186" x="908.59" y="-0.862793" width="354.333" height="369.317" filterUnits="userSpaceOnUse" color-interpolation-filters="sRGB">
<feFlood flood-opacity="0" result="BackgroundImageFix"/>
<feBlend mode="normal" in="SourceGraphic" in2="BackgroundImageFix" result="shape"/>
<feGaussianBlur stdDeviation="15" result="effect1_foregroundBlur_1_1186"/>
</filter>
<filter id="filter10_f_1_1186" x="193.615" y="458.478" width="418.294" height="381.492" filterUnits="userSpaceOnUse" color-interpolation-filters="sRGB">
<feFlood flood-opacity="0" result="BackgroundImageFix"/>
<feBlend mode="normal" in="SourceGraphic" in2="BackgroundImageFix" result="shape"/>
<feGaussianBlur stdDeviation="9" result="effect1_foregroundBlur_1_1186"/>
</filter>
<filter id="filter11_f_1_1186" x="1596.04" y="137.697" width="215.102" height="214.32" filterUnits="userSpaceOnUse" color-interpolation-filters="sRGB">
<feFlood flood-opacity="0" result="BackgroundImageFix"/>
<feBlend mode="normal" in="SourceGraphic" in2="BackgroundImageFix" result="shape"/>
<feGaussianBlur stdDeviation="9" result="effect1_foregroundBlur_1_1186"/>
</filter>
<filter id="filter12_f_1_1186" x="-153.694" y="447" width="331.694" height="318.661" filterUnits="userSpaceOnUse" color-interpolation-filters="sRGB">
<feFlood flood-opacity="0" result="BackgroundImageFix"/>
<feBlend mode="normal" in="SourceGraphic" in2="BackgroundImageFix" result="shape"/>
<feGaussianBlur stdDeviation="15" result="effect1_foregroundBlur_1_1186"/>
</filter>
<filter id="filter13_f_1_1186" x="1772" y="593" width="290" height="278.966" filterUnits="userSpaceOnUse" color-interpolation-filters="sRGB">
<feFlood flood-opacity="0" result="BackgroundImageFix"/>
<feBlend mode="normal" in="SourceGraphic" in2="BackgroundImageFix" result="shape"/>
<feGaussianBlur stdDeviation="15" result="effect1_foregroundBlur_1_1186"/>
</filter>
<filter id="filter14_f_1_1186" x="512.422" y="18.4243" width="225.625" height="214.555" filterUnits="userSpaceOnUse" color-interpolation-filters="sRGB">
<feFlood flood-opacity="0" result="BackgroundImageFix"/>
<feBlend mode="normal" in="SourceGraphic" in2="BackgroundImageFix" result="shape"/>
<feGaussianBlur stdDeviation="15" result="effect1_foregroundBlur_1_1186"/>
</filter>
<filter id="filter15_f_1_1186" x="773.576" y="722.397" width="290.363" height="277.862" filterUnits="userSpaceOnUse" color-interpolation-filters="sRGB">
<feFlood flood-opacity="0" result="BackgroundImageFix"/>
<feBlend mode="normal" in="SourceGraphic" in2="BackgroundImageFix" result="shape"/>
<feGaussianBlur stdDeviation="15" result="effect1_foregroundBlur_1_1186"/>
</filter>
<radialGradient id="paint0_radial_1_1186" cx="0" cy="0" r="1" gradientUnits="userSpaceOnUse" gradientTransform="translate(1900.38 529.756) rotate(90) scale(428.497 572.905)">
<stop stop-color="#2327FF"/>
<stop offset="1" stop-color="#2327FF" stop-opacity="0"/>
</radialGradient>
<radialGradient id="paint1_radial_1_1186" cx="0" cy="0" r="1" gradientUnits="userSpaceOnUse" gradientTransform="translate(-42.6796 529.756) rotate(90) scale(428.497 572.905)">
<stop stop-color="#5B5DB7"/>
<stop offset="1" stop-color="#5B5DB7" stop-opacity="0"/>
</radialGradient>
<linearGradient id="paint2_linear_1_1186" x1="1182.17" y1="730.589" x2="1107.55" y2="844.603" gradientUnits="userSpaceOnUse">
<stop stop-color="#56529F"/>
<stop offset="1" stop-color="#413D8C"/>
</linearGradient>
<linearGradient id="paint3_linear_1_1186" x1="1232.55" y1="778.011" x2="1174.13" y2="825.14" gradientUnits="userSpaceOnUse">
<stop stop-color="#363384"/>
<stop offset="1" stop-color="#383580"/>
</linearGradient>
<linearGradient id="paint4_linear_1_1186" x1="1171.66" y1="820.894" x2="1137.96" y2="872.385" gradientUnits="userSpaceOnUse">
<stop stop-color="#201D62"/>
<stop offset="1" stop-color="#312D72"/>
</linearGradient>
<linearGradient id="paint5_linear_1_1186" x1="731.228" y1="658.439" x2="680.103" y2="737.826" gradientUnits="userSpaceOnUse">
<stop stop-color="#2C10AC"/>
<stop offset="1" stop-color="#250B9E"/>
</linearGradient>
<linearGradient id="paint6_linear_1_1186" x1="694.668" y1="722.791" x2="639.096" y2="809.081" gradientUnits="userSpaceOnUse">
<stop stop-color="#16065B"/>
<stop offset="1" stop-color="#240E8B"/>
</linearGradient>
<linearGradient id="paint7_linear_1_1186" x1="668.837" y1="637.792" x2="582.145" y2="772.405" gradientUnits="userSpaceOnUse">
<stop stop-color="#250E8E"/>
<stop offset="1" stop-color="#260D97"/>
</linearGradient>
<linearGradient id="paint8_linear_1_1186" x1="834.005" y1="279.159" x2="810.875" y2="345.499" gradientUnits="userSpaceOnUse">
<stop stop-color="#2C10AC"/>
<stop offset="1" stop-color="#250B9E"/>
</linearGradient>
<linearGradient id="paint9_linear_1_1186" x1="818.788" y1="332.083" x2="793.646" y2="404.191" gradientUnits="userSpaceOnUse">
<stop stop-color="#16065B"/>
<stop offset="1" stop-color="#240E8B"/>
</linearGradient>
<linearGradient id="paint10_linear_1_1186" x1="785.275" y1="275.108" x2="746.054" y2="387.598" gradientUnits="userSpaceOnUse">
<stop stop-color="#250E8E"/>
<stop offset="1" stop-color="#260D97"/>
</linearGradient>
<linearGradient id="paint11_linear_1_1186" x1="1777.64" y1="424.585" x2="1794.67" y2="472.758" gradientUnits="userSpaceOnUse">
<stop stop-color="#2C10AC"/>
<stop offset="1" stop-color="#250B9E"/>
</linearGradient>
<linearGradient id="paint12_linear_1_1186" x1="1793.06" y1="461.545" x2="1811.57" y2="513.907" gradientUnits="userSpaceOnUse">
<stop stop-color="#16065B"/>
<stop offset="1" stop-color="#240E8B"/>
</linearGradient>
<linearGradient id="paint13_linear_1_1186" x1="1748.14" y1="444.438" x2="1777.01" y2="526.122" gradientUnits="userSpaceOnUse">
<stop stop-color="#250E8E"/>
<stop offset="1" stop-color="#260D97"/>
</linearGradient>
<linearGradient id="paint14_linear_1_1186" x1="217.645" y1="801.585" x2="234.672" y2="849.758" gradientUnits="userSpaceOnUse">
<stop stop-color="#2C10AC"/>
<stop offset="1" stop-color="#250B9E"/>
</linearGradient>
<linearGradient id="paint15_linear_1_1186" x1="233.065" y1="838.545" x2="251.572" y2="890.907" gradientUnits="userSpaceOnUse">
<stop stop-color="#16065B"/>
<stop offset="1" stop-color="#240E8B"/>
</linearGradient>
<linearGradient id="paint16_linear_1_1186" x1="188.142" y1="821.438" x2="217.014" y2="903.122" gradientUnits="userSpaceOnUse">
<stop stop-color="#250E8E"/>
<stop offset="1" stop-color="#260D97"/>
</linearGradient>
<linearGradient id="paint17_linear_1_1186" x1="1449.51" y1="210.93" x2="1428.87" y2="257.671" gradientUnits="userSpaceOnUse">
<stop stop-color="#2C10AC"/>
<stop offset="1" stop-color="#250B9E"/>
</linearGradient>
<linearGradient id="paint18_linear_1_1186" x1="1435.39" y1="248.407" x2="1412.96" y2="299.212" gradientUnits="userSpaceOnUse">
<stop stop-color="#16065B"/>
<stop offset="1" stop-color="#240E8B"/>
</linearGradient>
<linearGradient id="paint19_linear_1_1186" x1="1414.42" y1="205.153" x2="1379.43" y2="284.409" gradientUnits="userSpaceOnUse">
<stop stop-color="#250E8E"/>
<stop offset="1" stop-color="#260D97"/>
</linearGradient>
<linearGradient id="paint20_linear_1_1186" x1="180.247" y1="248.777" x2="244.519" y2="343.389" gradientUnits="userSpaceOnUse">
<stop stop-color="#2C10AA"/>
<stop offset="1" stop-color="#2D1CC4"/>
</linearGradient>
<linearGradient id="paint21_linear_1_1186" x1="189.289" y1="123.565" x2="298.195" y2="283.88" gradientUnits="userSpaceOnUse">
<stop offset="0.325" stop-color="#2C2FD2"/>
<stop offset="1" stop-color="#3336F1"/>
</linearGradient>
<linearGradient id="paint22_linear_1_1186" x1="173.521" y1="134.277" x2="125.677" y2="306.973" gradientUnits="userSpaceOnUse">
<stop stop-color="#1154FF"/>
<stop offset="1" stop-color="#393DFF"/>
</linearGradient>
<linearGradient id="paint23_linear_1_1186" x1="1485.52" y1="690.144" x2="1652.05" y2="786.292" gradientUnits="userSpaceOnUse">
<stop stop-color="#2C10AA"/>
<stop offset="1" stop-color="#2D1CC4"/>
</linearGradient>
<linearGradient id="paint24_linear_1_1186" x1="1407.55" y1="494.015" x2="1689.73" y2="656.932" gradientUnits="userSpaceOnUse">
<stop offset="0.325" stop-color="#2C2FD2"/>
<stop offset="1" stop-color="#3336F1"/>
</linearGradient>
<linearGradient id="paint25_linear_1_1186" x1="1391.53" y1="521.77" x2="1445.53" y2="818.168" gradientUnits="userSpaceOnUse">
<stop stop-color="#1154FF"/>
<stop offset="1" stop-color="#393DFF"/>
</linearGradient>
<linearGradient id="paint26_linear_1_1186" x1="1010.73" y1="530.803" x2="1088.29" y2="611.569" gradientUnits="userSpaceOnUse">
<stop stop-color="#2C10AA"/>
<stop offset="1" stop-color="#2D1CC4"/>
</linearGradient>
<linearGradient id="paint27_linear_1_1186" x1="998.906" y1="408.471" x2="1130.33" y2="545.325" gradientUnits="userSpaceOnUse">
<stop offset="0.325" stop-color="#2C2FD2"/>
<stop offset="1" stop-color="#3336F1"/>
</linearGradient>
<linearGradient id="paint28_linear_1_1186" x1="985.445" y1="421.397" x2="967.61" y2="595.925" gradientUnits="userSpaceOnUse">
<stop stop-color="#1154FF"/>
<stop offset="1" stop-color="#393DFF"/>
</linearGradient>
<linearGradient id="paint29_linear_1_1186" x1="1077.46" y1="21.7314" x2="1000.93" y2="307.352" gradientUnits="userSpaceOnUse">
<stop stop-color="#56529F"/>
<stop offset="1" stop-color="#413D8C"/>
</linearGradient>
<linearGradient id="paint30_linear_1_1186" x1="1213.48" y1="85.3347" x2="1124.99" y2="222.094" gradientUnits="userSpaceOnUse">
<stop stop-color="#363384"/>
<stop offset="1" stop-color="#383580"/>
</linearGradient>
<linearGradient id="paint31_linear_1_1186" x1="1117.01" y1="215.019" x2="1082.45" y2="344.009" gradientUnits="userSpaceOnUse">
<stop stop-color="#201D62"/>
<stop offset="1" stop-color="#312D72"/>
</linearGradient>
<linearGradient id="paint32_linear_1_1186" x1="281.53" y1="488.09" x2="401.52" y2="806.487" gradientUnits="userSpaceOnUse">
<stop stop-color="#56529F"/>
<stop offset="1" stop-color="#413D8C"/>
</linearGradient>
<linearGradient id="paint33_linear_1_1186" x1="451.374" y1="456.34" x2="460.349" y2="643.562" gradientUnits="userSpaceOnUse">
<stop stop-color="#363384"/>
<stop offset="1" stop-color="#383580"/>
</linearGradient>
<linearGradient id="paint34_linear_1_1186" x1="448.143" y1="642.298" x2="502.332" y2="786.09" gradientUnits="userSpaceOnUse">
<stop stop-color="#201D62"/>
<stop offset="1" stop-color="#312D72"/>
</linearGradient>
<linearGradient id="paint35_linear_1_1186" x1="1685.44" y1="153.71" x2="1664.9" y2="321.272" gradientUnits="userSpaceOnUse">
<stop stop-color="#56529F"/>
<stop offset="1" stop-color="#413D8C"/>
</linearGradient>
<linearGradient id="paint36_linear_1_1186" x1="1767.39" y1="178.843" x2="1728.25" y2="263.199" gradientUnits="userSpaceOnUse">
<stop stop-color="#363384"/>
<stop offset="1" stop-color="#383580"/>
</linearGradient>
<linearGradient id="paint37_linear_1_1186" x1="1723.18" y1="259.835" x2="1713.9" y2="335.508" gradientUnits="userSpaceOnUse">
<stop stop-color="#201D62"/>
<stop offset="1" stop-color="#312D72"/>
</linearGradient>
<linearGradient id="paint38_linear_1_1186" x1="-31.0721" y1="477" x2="-31.0721" y2="723.722" gradientUnits="userSpaceOnUse">
<stop stop-color="#56529F"/>
<stop offset="1" stop-color="#413D8C"/>
</linearGradient>
<linearGradient id="paint39_linear_1_1186" x1="92.2888" y1="498.887" x2="50.5053" y2="628.217" gradientUnits="userSpaceOnUse">
<stop stop-color="#363384"/>
<stop offset="1" stop-color="#383580"/>
</linearGradient>
<linearGradient id="paint40_linear_1_1186" x1="42.5465" y1="624.238" x2="42.5465" y2="735.661" gradientUnits="userSpaceOnUse">
<stop stop-color="#201D62"/>
<stop offset="1" stop-color="#312D72"/>
</linearGradient>
<linearGradient id="paint41_linear_1_1186" x1="1880.41" y1="623" x2="1880.41" y2="831.86" gradientUnits="userSpaceOnUse">
<stop stop-color="#56529F"/>
<stop offset="1" stop-color="#413D8C"/>
</linearGradient>
<linearGradient id="paint42_linear_1_1186" x1="1984.84" y1="641.528" x2="1949.47" y2="751.011" gradientUnits="userSpaceOnUse">
<stop stop-color="#363384"/>
<stop offset="1" stop-color="#383580"/>
</linearGradient>
<linearGradient id="paint43_linear_1_1186" x1="1942.73" y1="747.642" x2="1942.73" y2="841.966" gradientUnits="userSpaceOnUse">
<stop stop-color="#201D62"/>
<stop offset="1" stop-color="#312D72"/>
</linearGradient>
<linearGradient id="paint44_linear_1_1186" x1="669.28" y1="39.7171" x2="558.157" y2="161.663" gradientUnits="userSpaceOnUse">
<stop stop-color="#56529F"/>
<stop offset="1" stop-color="#413D8C"/>
</linearGradient>
<linearGradient id="paint45_linear_1_1186" x1="720.396" y1="106.096" x2="641.494" y2="151.2" gradientUnits="userSpaceOnUse">
<stop stop-color="#363384"/>
<stop offset="1" stop-color="#383580"/>
</linearGradient>
<linearGradient id="paint46_linear_1_1186" x1="639.352" y1="145.649" x2="589.167" y2="200.722" gradientUnits="userSpaceOnUse">
<stop stop-color="#201D62"/>
<stop offset="1" stop-color="#312D72"/>
</linearGradient>
<linearGradient id="paint47_linear_1_1186" x1="880.189" y1="752.767" x2="884" y2="961.042" gradientUnits="userSpaceOnUse">
<stop stop-color="#56529F"/>
<stop offset="1" stop-color="#413D8C"/>
</linearGradient>
<linearGradient id="paint48_linear_1_1186" x1="984.665" y1="769.337" x2="951.391" y2="879.159" gradientUnits="userSpaceOnUse">
<stop stop-color="#363384"/>
<stop offset="1" stop-color="#383580"/>
</linearGradient>
<linearGradient id="paint49_linear_1_1186" x1="944.61" y1="875.923" x2="946.331" y2="969.983" gradientUnits="userSpaceOnUse">
<stop stop-color="#201D62"/>
<stop offset="1" stop-color="#312D72"/>
</linearGradient>
<clipPath id="clip0_1_1186">
<rect width="1920" height="1024" fill="white"/>
</clipPath>
</defs>
</svg>
