<svg width="409" height="32" viewBox="0 0 409 32" fill="none" xmlns="http://www.w3.org/2000/svg">
<path d="M401.707 0.292893C401.317 -0.0976311 400.683 -0.0976311 400.293 0.292893L393.929 6.65685C393.538 7.04738 393.538 7.68054 393.929 8.07107C394.319 8.46159 394.953 8.46159 395.343 8.07107L401 2.41421L406.657 8.07107C407.047 8.46159 407.681 8.46159 408.071 8.07107C408.462 7.68054 408.462 7.04738 408.071 6.65685L401.707 0.292893ZM0 1V2.25H2V1H0ZM0 4.75V7.25H2V4.75H0ZM0 9.75V11H2V9.75H0ZM0 11C0 11.5545 0.0215126 12.1042 0.0637769 12.6482L2.05777 12.4933C2.0195 12.0007 2 11.5027 2 11H0ZM0.575827 15.9036C0.834189 16.9835 1.17595 18.031 1.59388 19.0388L3.44134 18.2727C3.06347 17.3615 2.75451 16.4145 2.52093 15.4382L0.575827 15.9036ZM3.09247 21.9745C3.66953 22.9142 4.3184 23.8049 5.03141 24.6389L6.55162 23.3393C5.90614 22.5843 5.31889 21.7781 4.79677 20.9279L3.09247 21.9745ZM7.36109 26.9686C8.19513 27.6816 9.08581 28.3305 10.0255 28.9075L11.0721 27.2032C10.2219 26.6811 9.41573 26.0939 8.66069 25.4484L7.36109 26.9686ZM12.9612 30.4061C13.969 30.8241 15.0165 31.1658 16.0964 31.4242L16.5618 29.4791C15.5855 29.2455 14.6385 28.9365 13.7273 28.5587L12.9612 30.4061ZM19.3518 31.9362C19.8958 31.9785 20.4455 32 21 32V30C20.4973 30 19.9993 29.9805 19.5067 29.9422L19.3518 31.9362ZM21 32H22.5V30H21V32ZM25.5 32H28.5V30H25.5V32ZM31.5 32H34.5V30H31.5V32ZM37.5 32H40.5V30H37.5V32ZM43.5 32H46.5V30H43.5V32ZM49.5 32H52.5V30H49.5V32ZM55.5 32H58.5V30H55.5V32ZM61.5 32H64.5V30H61.5V32ZM67.5 32H70.5V30H67.5V32ZM73.5 32H76.5V30H73.5V32ZM79.5 32H82.5V30H79.5V32ZM85.5 32H88.5V30H85.5V32ZM91.5 32H94.5V30H91.5V32ZM97.5 32H100.5V30H97.5V32ZM103.5 32H106.5V30H103.5V32ZM109.5 32H112.5V30H109.5V32ZM115.5 32H118.5V30H115.5V32ZM121.5 32H124.5V30H121.5V32ZM127.5 32H130.5V30H127.5V32ZM133.5 32H136.5V30H133.5V32ZM139.5 32H142.5V30H139.5V32ZM145.5 32H148.5V30H145.5V32ZM151.5 32H154.5V30H151.5V32ZM157.5 32H160.5V30H157.5V32ZM163.5 32H166.5V30H163.5V32ZM169.5 32H172.5V30H169.5V32ZM175.5 32H178.5V30H175.5V32ZM181.5 32H184.5V30H181.5V32ZM187.5 32H190.5V30H187.5V32ZM193.5 32H196.5V30H193.5V32ZM199.5 32H202.5V30H199.5V32ZM205.5 32H208.5V30H205.5V32ZM211.5 32H214.5V30H211.5V32ZM217.5 32H220.5V30H217.5V32ZM223.5 32H226.5V30H223.5V32ZM229.5 32H232.5V30H229.5V32ZM235.5 32H238.5V30H235.5V32ZM241.5 32H244.5V30H241.5V32ZM247.5 32H250.5V30H247.5V32ZM253.5 32H256.5V30H253.5V32ZM259.5 32H262.5V30H259.5V32ZM265.5 32H268.5V30H265.5V32ZM271.5 32H274.5V30H271.5V32ZM277.5 32H280.5V30H277.5V32ZM283.5 32H286.5V30H283.5V32ZM289.5 32H292.5V30H289.5V32ZM295.5 32H298.5V30H295.5V32ZM301.5 32H304.5V30H301.5V32ZM307.5 32H310.5V30H307.5V32ZM313.5 32H316.5V30H313.5V32ZM319.5 32H322.5V30H319.5V32ZM325.5 32H328.5V30H325.5V32ZM331.5 32H334.5V30H331.5V32ZM337.5 32H340.5V30H337.5V32ZM343.5 32H346.5V30H343.5V32ZM349.5 32H352.5V30H349.5V32ZM355.5 32H358.5V30H355.5V32ZM361.5 32H364.5V30H361.5V32ZM367.5 32H370.5V30H367.5V32ZM373.5 32H376.5V30H373.5V32ZM379.5 32H381V30H379.5V32ZM381 32C381.554 32 382.104 31.9785 382.648 31.9362L382.493 29.9422C382.001 29.9805 381.503 30 381 30V32ZM385.904 31.4242C386.983 31.1658 388.031 30.8241 389.039 30.4061L388.273 28.5587C387.361 28.9365 386.415 29.2455 385.438 29.4791L385.904 31.4242ZM391.974 28.9075C392.914 28.3305 393.805 27.6816 394.639 26.9686L393.339 25.4484C392.584 26.0939 391.778 26.6811 390.928 27.2032L391.974 28.9075ZM396.969 24.6389C397.682 23.8049 398.33 22.9142 398.908 21.9745L397.203 20.9279C396.681 21.7781 396.094 22.5843 395.448 23.3393L396.969 24.6389ZM400.406 19.0388C400.824 18.031 401.166 16.9835 401.424 15.9036L399.479 15.4382C399.245 16.4145 398.937 17.3615 398.559 18.2727L400.406 19.0388ZM401.936 12.6482C401.978 12.1042 402 11.5545 402 11H400C400 11.5027 399.98 12.0007 399.942 12.4933L401.936 12.6482ZM402 11V9.75H400V11H402ZM402 7.25V4.75H400V7.25H402ZM402 2.25V1H400V2.25H402Z" fill="#393DFF"/>
</svg>
