<svg width="816" height="51" viewBox="0 0 816 51" fill="none" xmlns="http://www.w3.org/2000/svg">
<path d="M808.707 50.7071C808.317 51.0976 807.683 51.0976 807.293 50.7071L800.929 44.3431C800.538 43.9526 800.538 43.3195 800.929 42.9289C801.319 42.5384 801.953 42.5384 802.343 42.9289L808 48.5858L813.657 42.9289C814.047 42.5384 814.681 42.5384 815.071 42.9289C815.462 43.3195 815.462 43.9526 815.071 44.3431L808.707 50.7071ZM409 0C409 0.502743 409.02 1.00074 409.058 1.49328L407.064 1.64819C407.022 1.10416 407 0.554493 407 0H409ZM409.521 4.43824C409.755 5.41451 410.063 6.36148 410.441 7.2727L408.594 8.03881C408.176 7.03096 407.834 5.98348 407.576 4.90361L409.521 4.43824ZM411.797 9.9279C412.319 10.7781 412.906 11.5843 413.552 12.3393L412.031 13.6389C411.318 12.8049 410.67 11.9142 410.092 10.9745L411.797 9.9279ZM415.661 14.4484C416.416 15.0939 417.222 15.6811 418.072 16.2032L417.026 17.9075C416.086 17.3305 415.195 16.6816 414.361 15.9686L415.661 14.4484ZM420.727 17.5587C421.639 17.9365 422.585 18.2455 423.562 18.4791L423.096 20.4242C422.017 20.1658 420.969 19.8241 419.961 19.4061L420.727 17.5587ZM426.507 18.9422C426.999 18.9805 427.497 19 428 19V21C427.446 21 426.896 20.9785 426.352 20.9362L426.507 18.9422ZM428 19H429.5V21H428V19ZM432.5 19H435.5V21H432.5V19ZM438.5 19H441.5V21H438.5V19ZM444.5 19H447.5V21H444.5V19ZM450.5 19H453.5V21H450.5V19ZM456.5 19H459.5V21H456.5V19ZM462.5 19H465.5V21H462.5V19ZM468.5 19H471.5V21H468.5V19ZM474.5 19H477.5V21H474.5V19ZM480.5 19H483.5V21H480.5V19ZM486.5 19H489.5V21H486.5V19ZM492.5 19H495.5V21H492.5V19ZM498.5 19H501.5V21H498.5V19ZM504.5 19H507.5V21H504.5V19ZM510.5 19H513.5V21H510.5V19ZM516.5 19H519.5V21H516.5V19ZM522.5 19H525.5V21H522.5V19ZM528.5 19H531.5V21H528.5V19ZM534.5 19H537.5V21H534.5V19ZM540.5 19H543.5V21H540.5V19ZM546.5 19H549.5V21H546.5V19ZM552.5 19H555.5V21H552.5V19ZM558.5 19H561.5V21H558.5V19ZM564.5 19H567.5V21H564.5V19ZM570.5 19H573.5V21H570.5V19ZM576.5 19H579.5V21H576.5V19ZM582.5 19H585.5V21H582.5V19ZM588.5 19H591.5V21H588.5V19ZM594.5 19H597.5V21H594.5V19ZM600.5 19H603.5V21H600.5V19ZM606.5 19H609.5V21H606.5V19ZM612.5 19H615.5V21H612.5V19ZM618.5 19H621.5V21H618.5V19ZM624.5 19H627.5V21H624.5V19ZM630.5 19H633.5V21H630.5V19ZM636.5 19H639.5V21H636.5V19ZM642.5 19H645.5V21H642.5V19ZM648.5 19H651.5V21H648.5V19ZM654.5 19H657.5V21H654.5V19ZM660.5 19H663.5V21H660.5V19ZM666.5 19H669.5V21H666.5V19ZM672.5 19H675.5V21H672.5V19ZM678.5 19H681.5V21H678.5V19ZM684.5 19H687.5V21H684.5V19ZM690.5 19H693.5V21H690.5V19ZM696.5 19H699.5V21H696.5V19ZM702.5 19H705.5V21H702.5V19ZM708.5 19H711.5V21H708.5V19ZM714.5 19H717.5V21H714.5V19ZM720.5 19H723.5V21H720.5V19ZM726.5 19H729.5V21H726.5V19ZM732.5 19H735.5V21H732.5V19ZM738.5 19H741.5V21H738.5V19ZM744.5 19H747.5V21H744.5V19ZM750.5 19H753.5V21H750.5V19ZM756.5 19H759.5V21H756.5V19ZM762.5 19H765.5V21H762.5V19ZM768.5 19H771.5V21H768.5V19ZM774.5 19H777.5V21H774.5V19ZM780.5 19H783.5V21H780.5V19ZM786.5 19H788V21H786.5V19ZM788 19C788.554 19 789.104 19.0215 789.648 19.0638L789.493 21.0578C789.001 21.0195 788.503 21 788 21V19ZM792.904 19.5758C793.983 19.8342 795.031 20.1759 796.039 20.5939L795.273 22.4413C794.361 22.0635 793.415 21.7545 792.438 21.5209L792.904 19.5758ZM798.974 22.0925C799.914 22.6695 800.805 23.3184 801.639 24.0314L800.339 25.5516C799.584 24.9061 798.778 24.3189 797.928 23.7968L798.974 22.0925ZM803.969 26.3611C804.682 27.1951 805.33 28.0858 805.908 29.0255L804.203 30.0721C803.681 29.2219 803.094 28.4157 802.448 27.6607L803.969 26.3611ZM807.406 31.9612C807.824 32.969 808.166 34.0165 808.424 35.0964L806.479 35.5618C806.245 34.5855 805.937 33.6385 805.559 32.7273L807.406 31.9612ZM808.936 38.3518C808.978 38.8958 809 39.4455 809 40H807C807 39.4973 806.98 38.9993 806.942 38.5067L808.936 38.3518ZM809 40V41.25H807V40H809ZM809 43.75V46.25H807V43.75H809ZM809 48.75V50H807V48.75H809Z" fill="#393DFF"/>
<path d="M7.29291 50.7071C7.68341 51.0976 8.31659 51.0976 8.70709 50.7071L15.0711 44.3431C15.4616 43.9526 15.4616 43.3195 15.0711 42.9289C14.6805 42.5384 14.0474 42.5384 13.6569 42.9289L8 48.5858L2.34314 42.9289C1.95261 42.5384 1.31946 42.5384 0.928925 42.9289C0.538422 43.3195 0.538422 43.9526 0.928925 44.3431L7.29291 50.7071ZM407 0C407 0.502743 406.98 1.00074 406.942 1.49328L408.936 1.64819C408.978 1.10416 409 0.554493 409 0H407ZM406.479 4.43824C406.245 5.41451 405.937 6.36148 405.559 7.2727L407.406 8.03881C407.824 7.03096 408.166 5.98348 408.424 4.90361L406.479 4.43824ZM404.203 9.9279C403.681 10.7781 403.094 11.5843 402.448 12.3393L403.969 13.6389C404.682 12.8049 405.33 11.9142 405.908 10.9745L404.203 9.9279ZM400.339 14.4484C399.584 15.0939 398.778 15.6811 397.928 16.2032L398.974 17.9075C399.914 17.3305 400.805 16.6816 401.639 15.9686L400.339 14.4484ZM395.273 17.5587C394.361 17.9365 393.415 18.2455 392.438 18.4791L392.904 20.4242C393.983 20.1658 395.031 19.8241 396.039 19.4061L395.273 17.5587ZM389.493 18.9422C389.001 18.9805 388.503 19 388 19V21C388.554 21 389.104 20.9785 389.648 20.9362L389.493 18.9422ZM388 19H386.5V21H388V19ZM383.5 19H380.5V21H383.5V19ZM377.5 19H374.5V21H377.5V19ZM371.5 19H368.5V21H371.5V19ZM365.5 19H362.5V21H365.5V19ZM359.5 19H356.5V21H359.5V19ZM353.5 19H350.5V21H353.5V19ZM347.5 19H344.5V21H347.5V19ZM341.5 19H338.5V21H341.5V19ZM335.5 19H332.5V21H335.5V19ZM329.5 19H326.5V21H329.5V19ZM323.5 19H320.5V21H323.5V19ZM317.5 19H314.5V21H317.5V19ZM311.5 19H308.5V21H311.5V19ZM305.5 19H302.5V21H305.5V19ZM299.5 19H296.5V21H299.5V19ZM293.5 19H290.5V21H293.5V19ZM287.5 19H284.5V21H287.5V19ZM281.5 19H278.5V21H281.5V19ZM275.5 19H272.5V21H275.5V19ZM269.5 19H266.5V21H269.5V19ZM263.5 19H260.5V21H263.5V19ZM257.5 19H254.5V21H257.5V19ZM251.5 19H248.5V21H251.5V19ZM245.5 19H242.5V21H245.5V19ZM239.5 19H236.5V21H239.5V19ZM233.5 19H230.5V21H233.5V19ZM227.5 19H224.5V21H227.5V19ZM221.5 19H218.5V21H221.5V19ZM215.5 19H212.5V21H215.5V19ZM209.5 19H206.5V21H209.5V19ZM203.5 19H200.5V21H203.5V19ZM197.5 19H194.5V21H197.5V19ZM191.5 19H188.5V21H191.5V19ZM185.5 19H182.5V21H185.5V19ZM179.5 19H176.5V21H179.5V19ZM173.5 19H170.5V21H173.5V19ZM167.5 19H164.5V21H167.5V19ZM161.5 19H158.5V21H161.5V19ZM155.5 19H152.5V21H155.5V19ZM149.5 19H146.5V21H149.5V19ZM143.5 19H140.5V21H143.5V19ZM137.5 19H134.5V21H137.5V19ZM131.5 19H128.5V21H131.5V19ZM125.5 19H122.5V21H125.5V19ZM119.5 19H116.5V21H119.5V19ZM113.5 19H110.5V21H113.5V19ZM107.5 19H104.5V21H107.5V19ZM101.5 19H98.5V21H101.5V19ZM95.5 19H92.5V21H95.5V19ZM89.5 19H86.5V21H89.5V19ZM83.5 19H80.5V21H83.5V19ZM77.5 19H74.5V21H77.5V19ZM71.5 19H68.5V21H71.5V19ZM65.5 19H62.5V21H65.5V19ZM59.5 19H56.5V21H59.5V19ZM53.5 19H50.5V21H53.5V19ZM47.5 19H44.5V21H47.5V19ZM41.5 19H38.5V21H41.5V19ZM35.5 19H32.5V21H35.5V19ZM29.5 19H28V21H29.5V19ZM28 19C27.4455 19 26.8958 19.0215 26.3518 19.0638L26.5067 21.0578C26.9993 21.0195 27.4973 21 28 21V19ZM23.0964 19.5758C22.0165 19.8342 20.9691 20.1759 19.9612 20.5939L20.7273 22.4413C21.6385 22.0635 22.5855 21.7545 23.5618 21.5209L23.0964 19.5758ZM17.0255 22.0925C16.0858 22.6695 15.1951 23.3184 14.3611 24.0314L15.6607 25.5516C16.4157 24.9061 17.2219 24.3189 18.0721 23.7968L17.0255 22.0925ZM12.0314 26.3611C11.3184 27.1951 10.6695 28.0858 10.0925 29.0255L11.7968 30.0721C12.3189 29.2219 12.9062 28.4157 13.5516 27.6607L12.0314 26.3611ZM8.59387 31.9612C8.17593 32.969 7.8342 34.0165 7.57584 35.0964L9.52094 35.5618C9.75452 34.5855 10.0635 33.6385 10.4413 32.7273L8.59387 31.9612ZM7.06378 38.3518C7.02151 38.8958 7 39.4455 7 40H9C9 39.4973 9.0195 38.9993 9.05777 38.5067L7.06378 38.3518ZM7 40V41.25H9V40H7ZM7 43.75V46.25H9V43.75H7ZM7 48.75V50H9V48.75H7Z" fill="#393DFF"/>
<path d="M407.293 50.7071C407.683 51.0976 408.317 51.0976 408.707 50.7071L415.071 44.3431C415.462 43.9526 415.462 43.3195 415.071 42.9289C414.681 42.5384 414.047 42.5384 413.657 42.9289L408 48.5858L402.343 42.9289C401.953 42.5384 401.319 42.5384 400.929 42.9289C400.538 43.3195 400.538 43.9526 400.929 44.3431L407.293 50.7071ZM409 50V48.5H407V50H409ZM409 45.5V42.5H407V45.5H409ZM409 39.5V36.5H407V39.5H409ZM409 33.5V30.5H407V33.5H409ZM409 27.5V24.5H407V27.5H409ZM409 21.5V20H407V21.5H409Z" fill="#393DFF"/>
</svg>
