<svg width="28" height="16" viewBox="0 0 28 16" fill="none" xmlns="http://www.w3.org/2000/svg">
<path fill-rule="evenodd" clip-rule="evenodd" d="M4.11346 0H1.05026C0.175053 0 0 0.396464 0 0.833516C0 1.61423 1.0385 5.48615 4.83542 10.6071C7.36671 14.1043 10.933 16 14.1783 16C16.1255 16 16.3663 15.5789 16.3663 14.8537V12.2105C16.3663 11.3684 16.5508 11.2003 17.1673 11.2003C17.6217 11.2003 18.4005 11.4189 20.2179 13.1051C22.2949 15.1035 22.6373 16 23.8055 16H26.8687C27.744 16 28.1815 15.5789 27.9291 14.748C27.6529 13.9199 26.6612 12.7183 25.3454 11.2941C24.6314 10.4822 23.5605 9.60792 23.236 9.17069C22.7817 8.60867 22.9114 8.35882 23.236 7.85928C23.236 7.85928 26.968 2.80076 27.3575 1.08345C27.5522 0.458863 27.3575 0 26.4311 0H23.3679C22.5891 0 22.23 0.396464 22.0352 0.833516C22.0352 0.833516 20.4775 4.4869 18.2708 6.86004C17.5568 7.54695 17.2322 7.76556 16.8428 7.76556C16.6481 7.76556 16.3663 7.54695 16.3663 6.92253V1.08345C16.3663 0.333979 16.1402 0 15.4911 0H10.6774C10.1908 0 9.89799 0.347789 9.89799 0.677473C9.89799 1.38787 11.0014 1.55175 11.1151 3.55015V7.89053C11.1151 8.84211 10.9364 9.01465 10.5471 9.01465C9.50862 9.01465 6.98258 5.34493 5.48441 1.14585C5.19085 0.329685 4.89632 0 4.11346 0Z" fill="white"/>
</svg>
