<svg width="409" height="32" viewBox="0 0 409 32" fill="none" xmlns="http://www.w3.org/2000/svg">
<path d="M401.707 31.7071C401.317 32.0976 400.683 32.0976 400.293 31.7071L393.929 25.3431C393.538 24.9526 393.538 24.3195 393.929 23.9289C394.319 23.5384 394.953 23.5384 395.343 23.9289L401 29.5858L406.657 23.9289C407.047 23.5384 407.681 23.5384 408.071 23.9289C408.462 24.3195 408.462 24.9526 408.071 25.3431L401.707 31.7071ZM0 31V29.75H2V31H0ZM0 27.25V24.75H2V27.25H0ZM0 22.25V21H2V22.25H0ZM0 21C0 20.4455 0.0215126 19.8958 0.0637769 19.3518L2.05777 19.5067C2.0195 19.9993 2 20.4973 2 21H0ZM0.575827 16.0964C0.834189 15.0165 1.17595 13.969 1.59388 12.9612L3.44134 13.7273C3.06347 14.6385 2.75451 15.5855 2.52093 16.5618L0.575827 16.0964ZM3.09247 10.0255C3.66953 9.0858 4.3184 8.19513 5.03141 7.36109L6.55162 8.66069C5.90614 9.41573 5.31889 10.2219 4.79677 11.0721L3.09247 10.0255ZM7.36109 5.03141C8.19513 4.3184 9.08581 3.66953 10.0255 3.09247L11.0721 4.79677C10.2219 5.31889 9.41573 5.90614 8.66069 6.55162L7.36109 5.03141ZM12.9612 1.59388C13.969 1.17595 15.0165 0.834188 16.0964 0.575827L16.5618 2.52093C15.5855 2.75451 14.6385 3.06347 13.7273 3.44134L12.9612 1.59388ZM19.3518 0.0637768C19.8958 0.0215125 20.4455 0 21 0V2C20.4973 2 19.9993 2.0195 19.5067 2.05777L19.3518 0.0637768ZM21 0H22.5V2H21V0ZM25.5 0H28.5V2H25.5V0ZM31.5 0H34.5V2H31.5V0ZM37.5 0H40.5V2H37.5V0ZM43.5 0H46.5V2H43.5V0ZM49.5 0H52.5V2H49.5V0ZM55.5 0H58.5V2H55.5V0ZM61.5 0H64.5V2H61.5V0ZM67.5 0H70.5V2H67.5V0ZM73.5 0H76.5V2H73.5V0ZM79.5 0H82.5V2H79.5V0ZM85.5 0H88.5V2H85.5V0ZM91.5 0H94.5V2H91.5V0ZM97.5 0H100.5V2H97.5V0ZM103.5 0H106.5V2H103.5V0ZM109.5 0H112.5V2H109.5V0ZM115.5 0H118.5V2H115.5V0ZM121.5 0H124.5V2H121.5V0ZM127.5 0H130.5V2H127.5V0ZM133.5 0H136.5V2H133.5V0ZM139.5 0H142.5V2H139.5V0ZM145.5 0H148.5V2H145.5V0ZM151.5 0H154.5V2H151.5V0ZM157.5 0H160.5V2H157.5V0ZM163.5 0H166.5V2H163.5V0ZM169.5 0H172.5V2H169.5V0ZM175.5 0H178.5V2H175.5V0ZM181.5 0H184.5V2H181.5V0ZM187.5 0H190.5V2H187.5V0ZM193.5 0H196.5V2H193.5V0ZM199.5 0H202.5V2H199.5V0ZM205.5 0H208.5V2H205.5V0ZM211.5 0H214.5V2H211.5V0ZM217.5 0H220.5V2H217.5V0ZM223.5 0H226.5V2H223.5V0ZM229.5 0H232.5V2H229.5V0ZM235.5 0H238.5V2H235.5V0ZM241.5 0H244.5V2H241.5V0ZM247.5 0H250.5V2H247.5V0ZM253.5 0H256.5V2H253.5V0ZM259.5 0H262.5V2H259.5V0ZM265.5 0H268.5V2H265.5V0ZM271.5 0H274.5V2H271.5V0ZM277.5 0H280.5V2H277.5V0ZM283.5 0H286.5V2H283.5V0ZM289.5 0H292.5V2H289.5V0ZM295.5 0H298.5V2H295.5V0ZM301.5 0H304.5V2H301.5V0ZM307.5 0H310.5V2H307.5V0ZM313.5 0H316.5V2H313.5V0ZM319.5 0H322.5V2H319.5V0ZM325.5 0H328.5V2H325.5V0ZM331.5 0H334.5V2H331.5V0ZM337.5 0H340.5V2H337.5V0ZM343.5 0H346.5V2H343.5V0ZM349.5 0H352.5V2H349.5V0ZM355.5 0H358.5V2H355.5V0ZM361.5 0H364.5V2H361.5V0ZM367.5 0H370.5V2H367.5V0ZM373.5 0H376.5V2H373.5V0ZM379.5 0H381V2H379.5V0ZM381 0C381.554 0 382.104 0.0215126 382.648 0.0637769L382.493 2.05777C382.001 2.0195 381.503 2 381 2V0ZM385.904 0.575827C386.983 0.834189 388.031 1.17595 389.039 1.59388L388.273 3.44134C387.361 3.06347 386.415 2.75451 385.438 2.52093L385.904 0.575827ZM391.974 3.09247C392.914 3.66953 393.805 4.3184 394.639 5.03141L393.339 6.55162C392.584 5.90614 391.778 5.31889 390.928 4.79677L391.974 3.09247ZM396.969 7.36109C397.682 8.19513 398.33 9.08581 398.908 10.0255L397.203 11.0721C396.681 10.2219 396.094 9.41573 395.448 8.66069L396.969 7.36109ZM400.406 12.9612C400.824 13.969 401.166 15.0165 401.424 16.0964L399.479 16.5618C399.245 15.5855 398.937 14.6385 398.559 13.7273L400.406 12.9612ZM401.936 19.3518C401.978 19.8958 402 20.4455 402 21H400C400 20.4973 399.98 19.9993 399.942 19.5067L401.936 19.3518ZM402 21V22.25H400V21H402ZM402 24.75V27.25H400V24.75H402ZM402 29.75V31H400V29.75H402Z" fill="#393DFF"/>
</svg>
